<?xml version="1.0" encoding="UTF-8"?>
<svg version="1.1" viewBox="0 0 2048 2048" width="688" height="688" xmlns="http://www.w3.org/2000/svg">
<path transform="translate(309,860)" d="m0 0h53l124 1 13 24 25 45 13 24 9 15 8 15 13 22 4 7v6l-14 26-10 17-13 24-13 23-14 26-10 17-12 21h-176l-8-14-13-23-14-25-14-26-13-23-12-21-13-23 2-6 13-24 14-24 14-25 12-22 5-8 13-24 11-20zm55 2-3 2 8 1v-3zm-44 1-3 2h10l2-2zm21 0v1l7 1 1-2zm39 0v1h6v-1zm40 1v307h13l1-306-1-1zm67 6-1 1v6h4l-2-7zm-181 4m-1 2m-25 40-6 12 1 9 17 50 23 67 16 47 12 36 11 32 12 1 1-3-6-20-39-117-14-40-19-55-7-18zm259 46-8 16-8 11-9 7-11 6v3l7-1 12-5 10-7 7-7 6-9-1-6-4-8zm-35 49 1 3 16 7 13 9 9 9 6 9h3l5-9-1-5-10-9-12-7-15-5zm-2 9 1 3 2-1v-2z" fill="#AD703C"/>
<path transform="translate(309,861)" d="m0 0h14l-3 1v2h10v-2l2-1h7l1 3h8l1-2 10-1 1 4h9v-3h11l1 2 6 1v-3h18v1l-6 1v1l11 2 1 3 2 20 1 28 1 50v72l-1 39-2 45-3 42-3 3h-11l-4-2-6-13-8-20-5-11-3 3-1 18v8l-1 7h-3l-43-129-14-40-19-55-7-18-6 11 1 9 9 26v8l-4-3-2-2-1-7-2-1-1-5-2-2-3-8 6 16 1 8h2l5 16 3 6 5 17 6 17v3h2l9 28v5l-31 3h-31l-12-21-13-23 2-6 13-24 14-24 14-25 12-22 5-8 13-24 11-20z" fill="#9A4F1E"/>
<path transform="translate(309,860)" d="m0 0h53l76 1v1l-11 1v1h-7v307h13v-302l2-3 1 9 1 4v14l-1 5v59l1 18-1 4v92l2 7v18l-1 5 1 2-1 9v14l-1 13-1 30-1 3h21v1h-146l-8-14-13-23-14-25-14-26-12-21v-2l30-1 20-2h11l-5-17-4-12v-4h-2l-11-32-2-7-3-7-3-10v-3h-2l-3-10-5-14 1-3 4 11 2-1v8l3 1 1 7 2-1 2 4 2-3 21 62 15 43 14 41 14 43 4 12v2h12l-1-10h2v-23l1-11 4-3 8 16 4 12 7 14 1 3 3 1h13l3-44 2-45 1-42v-69l-1-50-1-28-2-23-11-1v-3l-12-1v3h-6l-1-2h-16l1 2h-5l-1-3-10 1-9 1-1-2h-9l-1 2-9-1v-1l-11-1z" fill="#C8996A"/>
<path transform="translate(553,989)" d="m0 0h2l9 14 3 3 4 7v6l-14 26-10 17-5 8h-2l-2 5-4 6-3 7-8 13-10 19-6 9-1 3h-2l-2 5-12 24-4 2h-4l-1-4-1 4h-5l-1-1-10-2-9-6-2-6-2-72v-23l2-29 3-7 9-1h18l14 2 5 2 1 2 15 6 10 5 6 4 10 12 5 5 1-5h2l1-5 3-5-2-10 2-3-2-5-8-5-19-7-6-2 2-2 13-5 9-6 4-1 1-3z" fill="#994E1E"/>
<path transform="translate(481,864)" d="m0 0 5 3 1 10 2-1v-7l3 3 14 26 18 32 11 20v5l-3 3-8 16-7 9-9 8-5 1v2l-14 6h-28l-6-2-2-7-1-11v-38l1-18 2-43 1-7 7-5 9-2 5-2z" fill="#9A4E1E"/>
<path transform="translate(284,905)" d="m0 0 2 1-3 7v4l-3 1-5 10 1 9 9 26v8l-4-3-2-2-1-7-2-1-1-5-2-2-3-8 6 16 1 8h2l5 16 3 6 5 17 6 17v3h2l9 28v5l-31 3h-31l-12-21-13-23 2-6 13-24 14-24 14-25 12-22 5-8z" fill="#8E3A16"/>
<path transform="translate(315,847)" d="m0 0 176 1 4 4 11 21 20 35 14 25 12 21 15 27 14 25 5 8-1 7-10 17-25 45-28 50-16 29-12 21-4 3h-187l-4-5-14-25-13-23-13-24-14-24-13-24-13-23-9-16-2-7 15-27 13-23 15-27 13-23 14-25 10-17 12-23 2-2zm-7 6-4 2-16 29-9 15-15 27-16 29-14 25-15 27-4 7 1 7 12 21 7 14 12 21 16 29 14 25 10 17 15 27 3 5 3 1h180l6-9 12-22 13-23 14-25 16-29 14-25 12-22 4-8-1-6-15-27-12-21-13-24-10-18-14-25-15-26-9-17-2-1z" fill="#C69566"/>
<path transform="translate(260,1064)" d="m0 0 16 1 4 1 4 6v2l13 2h13l7 1 6 15 6 19v7h2l8 30 2 11v7l-11 3h3l-1 3-10 1h-13l-8-14-13-23-14-25-14-26-10-18v-2z" fill="#9A501F"/>
<path transform="translate(289,896)" d="m0 0h5l6 17 3 9 8 22 4 12 1 9h2l6 17 18 53 7 21 3 17 1 6v15l1 11-4 4 1 8-2-3-28-84-14-40-19-55-6-16 1-9 5-12z" fill="#C99A6B"/>
<path transform="translate(401,950)" d="m0 0 10 1v10l-1 1h-7l2 9 6 1v12l-2 4 3 5v28l-1 3 1 9v3l-1 6h-7l1 8 6 3 1 2-1 8-6 1-1 6 7 4v9l-7 2-1 6v2h7v11h-6l2 5-3 3 7 2v17l-1 13-2 3h1v5l-1 3-1 10-1 2-8 1-1-1-1-17v-10l1-6v-1l2-5-2-3v-22l1-10 1-1-1-14 1-11-2-1 1-14 1-5-2-4h-8l-3-1-1 3-4 1-2-4 1-4 2-2-5-2 3-6 3-1-3-3 1-9-2-5 1-3v-10l1-8 6-2-3-1-3-3v-12h4l2-5 3-1 2 3 1 13-1 4 1 11 1 1v6l-1 5 1 7-1 3 5-2 2-17v-15l1-6v-27z" fill="#8E3A16"/>
<path transform="translate(1790,973)" d="m0 0h16v3l-2 11v67l2 14h-15l-6-1 2-9 2-12v-26h-48l-1 1-2 21 1 14 4 9-1 3h-11l-7-1-1-3 2-20v-30l-2-29-4-8-2-3h27l-2 5-2 7-1 8v15l8 4 42-1-1-25-4-10v-3z" fill="#AD6F3C"/>
<path transform="translate(1073,973)" d="m0 0 19 1-2 10-1 24-1 44-1 17-5-2-7-7-8-7-9-9-7-8-14-15-9-10-13-13-1 19 1 20 2 19v8l5 2v2h-22l2-4 2-2 1-4 2-43v-41l5 1 7 7 6 5 7 8 12 13 7 8 8 8 7 8 13 13v-21l-2-32v-12l-3-1z" fill="#AD703C"/>
<path transform="translate(828,974)" d="m0 0h26l-2 17-1 22h51l-2-31-3-8h22l-3 9v65l1 11 3 9h-13l-8-1v-5l2-3 1-7v-33h-51v15l1 21 3 8v4h-19l2-19v-45l-2-21-5-5z" fill="#AF733F"/>
<path transform="translate(1365,974)" d="m0 0h23l-6 7-2 5-1 82-5-1-8-8-8-7-14-14-7-8-11-12-7-8-7-7-6-4 1 44 4 21 1 4h-14l-5-1 2-5 2-8 1-65 1-12 3-2 9 6 15 16 9 10 10 10 7 8 16 17 3 3v-50l-1-9-5-9z" fill="#AE713D"/>
<path transform="translate(1412,974)" d="m0 0h45l17 3 9 4 9 7 8 14 2 8v22l-4 11-6 10-8 7-12 6-10 2h-37l-10-1 2-12 1-24v-42l-3-8-3-5zm32 5-9 3-4 7-1 3v59l3 7 8 5 3 1h14l16-6 9-8 5-9 2-9v-16l-4-12-8-11-8-6-12-6z" fill="#AD703D"/>
<path transform="translate(1162,974)" d="m0 0h33l10 4 6 9 1 10-6 12-5 7 5 1 7 5 6 10 2 6v8l-6 12-8 7-5 2-6 1h-28l-7-1 1-5 3-5v-40l-1-36-3-4zm19 6-3 2-1 7v23l7 2h8l5-5 3-9-1-10-4-6-3-3-3-1zm-2 39-1 1-1 7v26l4 6 5 3 10 1 8-4 3-4 1-3v-8l-4-13-5-8-6-3z" fill="#AE723E"/>
<path transform="translate(269,940)" d="m0 0 2 2 3 9 2-1v8l3 1 1 7 2-1 2 4 2-3 21 62 15 43 14 41 14 43 3 11-3 5 7 1v1h-35v-1l10-1-3-3 12-2-4-22-6-23v-3h-2l-2-10-9-27-1-4h-20l-11-2-3-3-3-4v-2l-20-1-11 1-1-4 30-1 20-2h11l-5-17-4-12v-4h-2l-11-32-2-7-3-7-3-10v-3h-2l-3-10-5-14z" fill="#C99B6C"/>
<path transform="translate(767,972)" d="m0 0h19l22 2 4 1-2 19-2 4-6-7-7-8-6-3-6-1h-13l-8 2-8 4-8 7-5 10-2 9v10l4 13 6 10 8 9 10 5 9 2 12 1 9-2 6-5 6-10h2l-1 14-3 7-7 3-11 2h-16l-14-3-14-7-10-9-5-9-3-9-1-5v-15l3-12 7-11 8-8 10-6 7-3z" fill="#AE713E"/>
<path transform="translate(233,970)" d="m0 0h3l-1 10-15 27-4 7 1 7 12 21 7 14 12 21 16 29 14 25 10 17 15 27 2 4 3 1h127l30 1v1l-5 1 2 1 28 1v1h-187l-4-5-14-25-13-23-13-24-14-24-13-24-13-23-9-16-2-7 15-27z" fill="#B17643"/>
<path transform="translate(284,905)" d="m0 0 2 1-3 7v4l-3 1-5 10 1 9 9 26v8l-4-3-2-2-1-7-2-1-1-5-2-2-3-8 6 16 1 6h-2l2 5 1 5 1 3-5 7-3-1v-5h-3v-6l1-2-8 1-3-1 1 7-1 2h-2l1 3-2 3 2 1-3 6v5h-4-2v-6l-7 1-3 10h2l1 4-1 2h-3l1 11-1 5 1 4-1 2 3 10 7 1v2l-5 1 3 1h4v5l-2 1 1 3 5-2v-2l4 2 4 7h27v1l-10 1h-31l-12-21-13-23 2-6 13-24 14-24 14-25 12-22 5-8z" fill="#9B5120"/>
<path transform="translate(674,973)" d="m0 0 4 1 13 32 15 40 7 14 3 4v3h-17l-10-30-2-4-25-1-4 10-5 19v6h-17l6-9 10-25 10-28 8-24zm1 26-6 9-5 11-2 6v4l10 1 11-1 1-5-7-24z" fill="#AF723F"/>
<path transform="translate(1662,973)" d="m0 0h28l4 1-2 17-4-2-6-8-3-2h-9l-6 3-3 7 1 9 7 8 15 13 7 7 4 9v13l-4 10-7 7-11 4h-16l-8-3-3-3v-12l2-5h3l3 11 5 4 5 2h9l7-4 3-6v-10l-4-7-10-10-8-7-9-11-2-5v-16l4-8 6-5z" fill="#AE723E"/>
<path transform="translate(535,952)" d="m0 0 3 4 8 13 8 15 11 18-1 2-7-10-2-5-5 2-1 2-15 9-11 4 4 2 19 7 9 6 2 6h-2l-1 5-8-6-12-7-15-5-15-3-2-4 1-2 15-5 12-7 8-8 6-9-1-6-3-7-2 3-9 17-9 10-13 8-5 2-11 1h-14l-2-2 7-2 9-2 10-4h2v-2l8-4 8-8 8-13 6-12h2z" fill="#C99B6D"/>
<path transform="translate(557,968)" d="m0 0h3l13 24 13 22-1 7-10 17-25 45-28 50-16 29-12 21-2 2h-30l-3-2 6-2 23-1 8-14 13-23 14-25 20-36 14-25 13-24 7-12 1-6-7-14-14-24-1-4z" fill="#CC9F73"/>
<path transform="translate(1526,973)" d="m0 0h13l9 1-5 5-1 24v50l3 6 6 2 17-1 8-7h2v7l-2 8h-40l-10-1-1-2 4-8v-53l-1-22z" fill="#AE723E"/>
<path transform="translate(1240,974)" d="m0 0h26l-1 4-3 10v68l5 9-1 3h-21l-1-3 3-8 1-18v-49l-6-12z" fill="#AE723E"/>
<path transform="translate(1460,975)" d="m0 0 11 1 11 4 10 8 8 14 2 8v22l-4 11-6 10-8 7-9 5-9-2-3-2 11-4 8-7 5-9 2-9v-16l-4-12-7-10-8-6-12-6-14-2-3-1 6-2v-1z" fill="#AE723E"/>
<path transform="translate(1599,974)" d="m0 0h24l-5 5h-2l-1 28v54l4 2 2 5h-14l-8-1v-6l1-2 1-22v-55l-2-4z" fill="#AE713D"/>
<path transform="translate(950,973)" d="m0 0 20 1 3 1-2 6-1 1-1 11v64l5 5 2 4-1 1h-24l2-4 2-6 1-14v-62l-6-6z" fill="#AE723E"/>
<path transform="translate(311,952)" d="m0 0 2 2 9 26 5 19 8 22 2 16 1 10v9l-3 1-3-3-10-29-10-30-4-13-1-11-1-2 2-14z" fill="#FEFEFE"/>
<path transform="translate(553,989)" d="m0 0h2l9 14 3 3 4 7v6l-14 26-9 15-3-4-4-7-4-5 1-2 9 11 2 1 1-5h2l1-5 3-5-2-10 2-3-2-5-8-5-19-7-6-2 2-2 13-5 9-6 4-1 1-3z" fill="#9B5120"/>
<path transform="translate(349,1057)" d="m0 0 2 2 13 41 10 22-1 3-2-2-2 4-1 17v8l-1 7h-3l-12-36-3-15 4-1-1-19v-10l-3-14z" fill="#AD713D"/>
<path transform="translate(434,866)" d="m0 0h1l1 9 1 4v14l-1 5v59l1 18-1 4v92l2 7v18l-1 5 1 2-1 9v14l-1 13-1 30h-2v-300z" fill="#C8996A"/>
<path transform="translate(418,1180)" d="m0 0h17l30 1v1l-5 1 2 1 28 1v1h-187v-1l31-1v-1l-5-1v-1z" fill="#CB9E71"/>
<path transform="translate(535,952)" d="m0 0 3 4 8 13 1 7-3-4-4-9-2 3-9 17-9 10-13 8-5 2-11 1h-14l-2-2 7-2 9-2 10-4h2v-2l8-4 8-8 8-13 6-12h2z" fill="#C99A6C"/>
<path transform="translate(557,968)" d="m0 0h3l13 24 13 22-1 7-10 17-14 25-4 1-1-5 14-26 7-12 1-6-7-14-14-24-1-4z" fill="#B17642"/>
<path transform="translate(319,1112)" d="m0 0 1 2h8l2 4v6h-10l1 3 8 1v3l-8 2 8 1 3 8-1 3-2 1h-11l-1 3-2-3 1-5-2-2 1-3-4 1v4l3 1-4 4-12-1 2-10h-2l-1-5 3-4 1 1 7 1 2 3-1 1-8 1 11 1 1-4 6-1-3-9v-6z" fill="#8E3A16"/>
<path transform="translate(496,1020)" d="m0 0 5 1 9 4 15 6 6 4 4 5-1 5-3 1v-3l-9 2-4-2v-8l-3 1-1 7-2 1-5-1-5 1-4-3v-12l-2-5z" fill="#8F3C16"/>
<path transform="translate(480,1127)" d="m0 0h8l5 2-1 2-9 1-2 5v6l1-9 11-1 1 12-1 1h-14-4l-1-10-1 9-1 1h-8l-3-2v-8l-2-1v8l-1 5-2-4 1-13h3 2v-3h7l5 2 3 1 2-1z" fill="#8E3A16"/>
<path transform="translate(260,1064)" d="m0 0 16 1 4 1 4 6v2l18 3-4 3v-2l-8 1-9-1-4 1-18-1 8 14 8 16 5 8-2 2-10-18-14-26-4-7v-2z" fill="#AD713D"/>
<path transform="translate(278,890)" d="m0 0 1 3v3l1 3-15 27-16 29-13 23-1-3 1-5-2-1 13-24 9-16 13-23z" fill="#CC9F73"/>
<path transform="translate(413,1042)" d="m0 0h1v37l-2 45-3 42-1 2-2-1 1-10-1-4 1-5-3-2 4-2 1-19v-11l-7-1 3-4-1-5h6v-11h-7l-1-6 3-4h6l-1-9-6-3-1-5 2-3h6v-7l1-1z" fill="#9A4F1E"/>
<path transform="translate(517,894)" d="m0 0 3 3 11 20 14 24 14 26-2 1v5h-2l-14-26-12-21-12-22-1-3z" fill="#CCA074"/>
<path transform="translate(275,1133)" d="m0 0 5 1 14 25 10 18 1 2 3 1 21 1 12 2v1l-7 1h-32l-6-9-22-40z" fill="#B07541"/>
<path transform="translate(401,890)" d="m0 0h9v9l-6 2v8l6 1v10h-8v2l9 1v3h-9l1 3 8 1v11l-8 1 7 1 1 4-2 1-8-1-1-4v-17l-1-6v-21l1-8z" fill="#8E3A16"/>
<path transform="translate(315,847)" d="m0 0 16 1 7 3 6 1v1l-36 1-3 1-16 29-8 13-4-2 4-10 10-18 9-17 2-2z" fill="#B07542"/>
<path transform="translate(238,1061)" d="m0 0 4 5 13 24 13 23 11 19-2 1-1 2-4-2-13-24-14-24-10-18 2-4z" fill="#CCA074"/>
<path transform="translate(469,848)" d="m0 0h22l4 4 11 21 8 14 3 5 1 7-1 2h-2l-10-18-9-16-6-11v-2l-21-1-13-2v-1z" fill="#A05827"/>
<path transform="translate(517,1130)" d="m0 0 1 4-3 11-9 17-12 21-2 2h-30l-3-2 6-2 23-1 8-14 13-23 7-12z" fill="#9E5625"/>
<path transform="translate(383,888)" d="m0 0h6l4 8v4h-2l2 7 1 4v7l-1 2h-13l-1-17 1-13z" fill="#8E3A16"/>
<path transform="translate(503,950)" d="m0 0 10 1v11h-6l2 5v2h3l2 3v10l-2 2-5-2 1 3-1 5h-2v2l-5 1-1-4 1-7 1-2v-8l3-2 3 1-2-2h-4l-1-9 2-4v-5z" fill="#8E3A16"/>
<path transform="translate(284,905)" d="m0 0 2 1-3 7v4l-3 1-5 10 1 9 9 26v8l-4-3-2-2-1-7-2-1-1-5-2-2-3-9-2 1v-2l-3 3-5 9-3 2 2-5 12-22 7-12z" fill="#AF7340"/>
<path transform="translate(505,1014)" d="m0 0 10 3 14 8 12 11 8 10v2l3 1h-2l-1 5-4-2-11-14-8-7-17-11-5-5z" fill="#CB9D70"/>
<path transform="translate(398,848)" d="m0 0h71v1l-7 1-1 1 8 1v1h-68v-2l-3-1z" fill="#C99A6B"/>
<path transform="translate(1305,1043)" d="m0 0h2l4 21 1 4h-14l-5-1 2-5 2-8 1-9 5-1z" fill="#AD703D"/>
<path transform="translate(465,1016)" d="m0 0h18l9 2 2 2v5l-4 1-2-4-7 5-4-1-1-1-8-1-5 2h-6v-7z" fill="#8E3A16"/>
<path transform="translate(214,1015)" d="m0 0 2 4 12 22 10 18-1 5-3 1-15-27-8-14v-2l2-2z" fill="#B17743"/>
<path transform="translate(462,1128)" d="m0 0h7l5 2 3 2-1 3-2 1-1 9-1 1h-8l-3-2v-8l-2-1v8l-1 5-2-4 1-13h3 2z" fill="#8F3C16"/>
<path transform="translate(409,867)" d="m0 0 2 3 2 20 1 28 1 50v69h-1l-2-89-1-45-2-27z" fill="#AD703C"/>
<path transform="translate(461,1149)" d="m0 0h33l-2 8-2 4-4 2h-4l-2-4-1 3h-3v-7l-2-1 1-2-13 1h-3z" fill="#8E3A16"/>
<path transform="translate(577,1021)" d="m0 0 2 4-1 3 2 1-16 29-3 5-4 1-1-5 14-26z" fill="#B17643"/>
<path transform="translate(548,1016)" d="m0 0 6 2 10 6 3 1-2 5-11 20-6 10-3-4-4-7-4-5 1-2 9 11 2 1 1-5h2l1-5 3-5-2-10 2-3-2-5-6-4z" fill="#AE713E"/>
<path transform="translate(377,1127)" d="m0 0 14 1 1 1v17h-10l-5-15z" fill="#8E3B16"/>
<path transform="translate(540,1070)" d="m0 0 2 1-13 24-25 45-13 23-2-2 8-16 7-13h2l1-5 9-14 10-19 6-9 3-7z" fill="#AF733F"/>
<path transform="translate(288,1159)" d="m0 0 4 4 7 11h2l4 5 3 1 21 1 12 2v1l-7 1h-32l-6-9-8-15z" fill="#AD703C"/>
<path transform="translate(517,1130)" d="m0 0 1 4-3 11-9 17-8 14-1-3 4-9-4 2 2-5 15-27z" fill="#B17542"/>
<path transform="translate(1073,973)" d="m0 0h7l5 1-2 4-1 3-1 54h-1l-3-43v-12l-3-1z" fill="#AB6C39"/>
<path transform="translate(413,1042)" d="m0 0h1v37l-2 45-3 42-1 2-2-1 1-10-1-4 1-5-3-2 4-2 2-34z" fill="#AD703C"/>
<path transform="translate(1082,977)" d="m0 0h3v42l-1 2-1 14h-2v-56z" fill="#C99A6B"/>
<path transform="translate(294,1022)" d="m0 0 4 5 2-1 9 28v5l-3-1v-2l-4-4-3-9 2-2-4-2-3-6v-3l-3-1v-6z" fill="#9B5020"/>
<path transform="translate(315,847)" d="m0 0 16 1 7 3 6 1v1h-41l-5 6h-2l2-5 4-6z" fill="#AD703C"/>
<path transform="translate(386,923)" d="m0 0 5 2 2 10-2 6h-10l-1-1v-11l4-2v-3z" fill="#8E3A16"/>
<path transform="translate(314,1155)" d="m0 0 5 1v6h2l-1-7h9l1 1v6h2v4l-5 1h-11l-1-4z" fill="#8E3B16"/>
<path transform="translate(380,1050)" d="m0 0h2v2l9-1 1 7v5l-4 3h-4l-4-2-1-7-3-3h2v-3z" fill="#8E3A16"/>
<path transform="translate(1784,1012)" d="m0 0h5l-1 5h-38l-7-1v-2l4-1z" fill="#C99A6B"/>
<path transform="translate(386,944)" d="m0 0 4 2 1 6v9l-3 1h-7l-1-1v-12l3 1 2-4z" fill="#8E3A16"/>
<path transform="translate(500,864)" d="m0 0 3 3 14 25 1 7-1 2h-2l-10-18-3-5v-2h2l-4-10z" fill="#B17643"/>
<path transform="translate(521,950)" d="m0 0 6 1 3 1 1 5-3 4h-2l-2 7-2 1-3-2-1-7 2-9z" fill="#8E3A16"/>
<path transform="translate(309,860)" d="m0 0h53l25 1v4h-6l-1-2h-16l1 2h-5l-1-3-10 1-9 1-1-2h-9l-1 2-9-1v-1l-11-1z" fill="#B37946"/>
<path transform="translate(295,1114)" d="m0 0 4 1v6l1-7h9l2 7v4h-8l-6 1-2-8z" fill="#8E3A16"/>
<path transform="translate(410,891)" d="m0 0h1l1 14v20l-1-2-9-1v-2h8v-10h-6l-1-1v-8l2-2h5z" fill="#9A4F1E"/>
<path transform="translate(299,1092)" d="m0 0 1 2h9l1 2v8l-13 1-2-9 1-3z" fill="#8E3B16"/>
<path transform="translate(1365,974)" d="m0 0h16l-4 2v12l-2 2-3-1v6h-1l-1-9-5-9z" fill="#C79767"/>
<path transform="translate(502,910)" d="m0 0h6l4 4 2 6h2v4l-2 1-12 1-1-3 12-1v-2h-11z" fill="#8E3A16"/>
<path transform="translate(305,1166)" d="m0 0 6 1 16-1h11v1l-8 2h3l-1 3-10 1h-13z" fill="#AE713D"/>
<path transform="translate(388,1091)" d="m0 0h3l1 5-1 8-11 1v-11l2-2z" fill="#8E3A16"/>
<path transform="translate(360,991)" d="m0 0 10 1 2 9h-2l-1 2-3-1-1 2h-5l-2-11h2z" fill="#8E3A16"/>
<path transform="translate(329,1181)" d="m0 0h18l18 2v1l-17 2h-45v-1l31-1v-1l-5-1z" fill="#C99A6B"/>
<path transform="translate(269,948)" d="m0 0 3 1 2 6v6l-2-1-2-6-2-1v8l-9 1v2h-3l1-4 6-9z" fill="#8F3D18"/>
<path transform="translate(388,1068)" d="m0 0 1 3h2l1 4-1 8-5 1h-5v-11h3l-1-3h5z" fill="#8E3A16"/>
<path transform="translate(906,974)" d="m0 0h13l-3 9v78h-2v-86h-8z" fill="#9F5827"/>
<path transform="translate(514,916)" d="m0 0 3 1 14 26 4 7v5l-3 3-8 16-2 1 2-6 4-9 4-8-2-6-8-14-7-12z" fill="#B27845"/>
<path transform="translate(398,848)" d="m0 0h32l-2 4-13 1h-14v-2l-3-1z" fill="#C99B6C"/>
<path transform="translate(386,1113)" d="m0 0h5l1 6v6h-11l-1-2v-8z" fill="#8E3A16"/>
<path transform="translate(482,1113)" d="m0 0h8l3 1v11h-11z" fill="#8E3A16"/>
<path transform="translate(502,930)" d="m0 0h10l1 1v10h-12v-3z" fill="#8E3A16"/>
<path transform="translate(504,1092)" d="m0 0h9l1 4-1 8h-10v-11z" fill="#8E3A16"/>
<path transform="translate(503,1073)" d="m0 0h11v11l-10 1-1-1z" fill="#8E3A16"/>
<path transform="translate(514,1112)" d="m0 0 1 2-3 7-5 5-6-1 2-11z" fill="#8E3B16"/>
<path transform="translate(483,1093)" d="m0 0h10v10l-6 2h-5z" fill="#8E3A16"/>
<path transform="translate(551,991)" d="m0 0 3 3 1 8-6 1-9 1v-4z" fill="#8E3A16"/>
<path transform="translate(382,869)" d="m0 0h6l2 1v9l-3 3-6-1-1-2v-9z" fill="#8E3A16"/>
<path transform="translate(360,971)" d="m0 0h8l2 2v8l-8 2-3-2v-8z" fill="#8E3A16"/>
<path transform="translate(360,1010)" d="m0 0 8 1 2 1 1 9-2 1h-8l-1-1z" fill="#8E3A16"/>
<path transform="translate(463,1113)" d="m0 0 9 1 1 3-1 8h-7l-3-1v-10z" fill="#8E3A16"/>
<path transform="translate(482,1032)" d="m0 0h11v11l-10-1-1-2z" fill="#8E3A16"/>
<path transform="translate(469,848)" d="m0 0h22l2 2-10 1 4 2h-18l-13-2v-1z" fill="#AD703C"/>
<path transform="translate(907 1e3)" d="m0 0h4l1 7v16l-4 1-1-5z" fill="#C99A6B"/>
<path transform="translate(360,1052)" d="m0 0h10v11h-9l-1-2z" fill="#8E3A16"/>
<path transform="translate(360,1031)" d="m0 0 10 1 1 10-3 1-7-1-2-10z" fill="#8E3A16"/>
<path transform="translate(483,971)" d="m0 0h9v11h-10v-10z" fill="#8E3A16"/>
<path transform="translate(482,930)" d="m0 0h9l1 1v10h-9l-1-1z" fill="#8E3A16"/>
<path transform="translate(579,1008)" d="m0 0 4 1 3 5-1 7-5 7h-2l-1-4 1-13z" fill="#9E5524"/>
<path transform="translate(481,1152)" d="m0 0h12l-1 5-2 4-4 2h-4l-2-5v-5z" fill="#8E3B16"/>
<path transform="translate(412,1055)" d="m0 0h1v11l-1 16h-1l-1-8-6-3-1-5 2-3h6v-7z" fill="#9A4F1E"/>
<path transform="translate(503,1053)" d="m0 0h10l1 10-4 1-7-1z" fill="#8E3A16"/>
<path transform="translate(399,867)" d="m0 0 9 1 1 10-3 2h-6z" fill="#8E3A16"/>
<path transform="translate(463,1093)" d="m0 0 9 1v10h-9l-1-1v-9z" fill="#8E3A16"/>
<path transform="translate(344,991)" d="m0 0 5 1 1 1v8l-2 1h-7l-3-5 2-5z" fill="#8E3A16"/>
<path transform="translate(360,950)" d="m0 0h7l3 2v9l-7 1-3-1z" fill="#8E3A16"/>
<path transform="translate(339,930)" d="m0 0h8l3 3v6l-2 2h-6l-2-1-1-3z" fill="#8E3A16"/>
<path transform="translate(462,971)" d="m0 0h7l3 1v9l-1 1h-9z" fill="#8E3A16"/>
<path transform="translate(288,1159)" d="m0 0 4 4 7 11h2l6 7 3 3-8 1-6-9-8-15z" fill="#9F5726"/>
<path transform="translate(392,1022)" d="m0 0 1 2 3-1 2 1 1 7-2 9-4-1-3-9 1-7z" fill="#9A4F1E"/>
<path transform="translate(340,971)" d="m0 0h10v10l-8 1-2-1z" fill="#8E3A16"/>
<path transform="translate(483,1073)" d="m0 0 10 1v9l-1 1h-8l-1-1z" fill="#8E3A16"/>
<path transform="translate(461,930)" d="m0 0h10l1 2v9h-7l-3-1z" fill="#8E3A16"/>
<path transform="translate(363,909)" d="m0 0h5l2 2v8l-1 1h-8l-1-1v-9z" fill="#8E3A16"/>
<path transform="translate(347,1181)" d="m0 0h24l1 2 16 2v1h-40v-1l11-1-12-2z" fill="#FEFEFE"/>
<path transform="translate(360,930)" d="m0 0h8l2 1v9l-4 1-6-1z" fill="#8E3A16"/>
<path transform="translate(384,1148)" d="m0 0h8l1 6v12h-2l-6-12z" fill="#913F18"/>
<path transform="translate(523,1053)" d="m0 0h10l1 5-1 5-8 1-2-2z" fill="#8E3A16"/>
<path transform="translate(346,1011)" d="m0 0h4v11h-8l-2-2v-8z" fill="#8E3A16"/>
<path transform="translate(482,951)" d="m0 0h9l1 1v10l-9-1-1-1z" fill="#8E3A16"/>
<path transform="translate(320,950)" d="m0 0 9 1 1 8-1 2h-9l-1-10z" fill="#8E3A16"/>
<path transform="translate(319,930)" d="m0 0h10v10h-9l-1-1z" fill="#8E3A16"/>
<path transform="translate(319,909)" d="m0 0h8l2 1v9l-6 1-4-2z" fill="#8E3A16"/>
<path transform="translate(462,1052)" d="m0 0 10 1-1 10h-9l-1-10z" fill="#8E3A16"/>
<path transform="translate(482,910)" d="m0 0h9l1 1v9h-9l-1-1z" fill="#8E3A16"/>
<path transform="translate(862,1013)" d="m0 0h40l-1 3h-21l-17-1z" fill="#C99A6B"/>
<path transform="translate(483,1052)" d="m0 0 10 1-1 10-2 1-7-1-1-10z" fill="#8E3A16"/>
<path transform="translate(280,1094)" d="m0 0h9l1 10h-10l-1-2v-7z" fill="#8E3A16"/>
<path transform="translate(340,950)" d="m0 0 8 1 1 1v9h-8l-2-7z" fill="#8E3A16"/>
<path transform="translate(534,1073)" d="m0 0 1 3-3 6-3 2h-6l1-10z" fill="#8E3A16"/>
<path transform="translate(467,1032)" d="m0 0 5 2-1 8-1 1h-8v-10z" fill="#8E3A16"/>
<path transform="translate(540,1070)" d="m0 0 2 1-13 24-10 18-2 2-1-2 10-19 6-9 3-7z" fill="#B27845"/>
<path transform="translate(462,951)" d="m0 0h10l-1 10h-8l-1-1z" fill="#8E3A16"/>
<path transform="translate(302,1035)" d="m0 0 2 4 5 15v5l-3-1v-2l-4-4-3-9 3-2z" fill="#9E5725"/>
<path transform="translate(483,991)" d="m0 0h10l-1 7-3 2h-7l-1-8z" fill="#903F19"/>
<path transform="translate(464,1073)" d="m0 0 8 1-1 9-8 1-1-1v-9z" fill="#8E3A16"/>
<path transform="translate(253,1051)" d="m0 0 4 2 4 8h-12l-3-4 1-2 6-2z" fill="#9A4F1E"/>
<path transform="translate(340,910)" d="m0 0h8l1 1v8l-1 1h-6l-2-1-1-8z" fill="#8E3A16"/>
<path transform="translate(363,869)" d="m0 0 6 1v9l-7 1-2-1v-9z" fill="#8E3A16"/>
<path transform="translate(463,910)" d="m0 0h8v9l-1 1h-7l-1-2v-7z" fill="#8E3A16"/>
<path transform="translate(339,890)" d="m0 0h9l1 1v8l-7 1-2-1z" fill="#8E3A16"/>
<path transform="translate(463,870)" d="m0 0h7l1 1v7l-1 1h-9v-7z" fill="#8E3A16"/>
<path transform="translate(340,870)" d="m0 0h8l1 1v8l-8 1-1-1z" fill="#8E3A16"/>
<path transform="translate(300,909)" d="m0 0 9 1 1 9-8 1-2-6z" fill="#8E3A16"/>
<path transform="translate(363,889)" d="m0 0 6 2v8h-9v-9z" fill="#8E3A16"/>
<path transform="translate(465,1181)" d="m0 0h19l-4 2 7 1v1h-25l-3-2z" fill="#AC6F3B"/>
<path transform="translate(281,1077)" d="m0 0 7 1 3 4 1 5h-4l-2-4-4 1-5 1-1-4h3v-3z" fill="#8E3A16"/>
<path transform="translate(361,1074)" d="m0 0h9v10l-8-1-1-1z" fill="#8E3A16"/>
<path transform="translate(320,890)" d="m0 0h8l1 1v8l-6 1-3-1z" fill="#8E3A16"/>
<path transform="translate(482,890)" d="m0 0h8l1 1v8h-8l-1-1z" fill="#8E3A16"/>
<path transform="translate(300,890)" d="m0 0h8l1 3-1 6h-7l-2-2v-6z" fill="#8E3A16"/>
<path transform="translate(352,1166)" d="m0 0 2 1v2h15l5 2-4 2h-13l-8-1z" fill="#AF7440"/>
<path transform="translate(288,1113)" d="m0 0 2 1v6l1 5h-4l-5-6-1-5z" fill="#8E3A16"/>
<path transform="translate(321,971)" d="m0 0h9v8l-1 2-4 1-4-7z" fill="#8E3A16"/>
<path transform="translate(424,1183)" d="m0 0h13l8 2v1h-37v-1z" fill="#FEFEFE"/>
<path transform="translate(462,992)" d="m0 0h10v7l-1 1h-8l-1-1z" fill="#8E3A16"/>
<path transform="translate(555,1041)" d="m0 0 2 4-9 15-3-4-4-7-4-5 1-2 9 11 2 1 1-5h2l1-5z" fill="#B07542"/>
<path transform="translate(320,870)" d="m0 0h8l1 4-1 5-3 1-5-2z" fill="#8E3A16"/>
<path transform="translate(308,1154)" d="m0 0h3l1 12-5-1-4-7v-3z" fill="#8E3A16"/>
<path transform="translate(462,891)" d="m0 0h9v8l-8 1-1-1z" fill="#8E3A16"/>
<path transform="translate(238,1046)" d="m0 0 3 1 8 13h39v1l-10 1h-31l-9-15z" fill="#AD703C"/>
<path transform="translate(348,1031)" d="m0 0h2v11h-6l-2-9z" fill="#8E3A16"/>
<path transform="translate(259,1082)" d="m0 0 3 1 8 16 5 9 5 8-2 2-10-18-9-16z" fill="#B67D4B"/>
<path transform="translate(1429,975)" d="m0 0h31v1l-12 1v1l-7 2-6-1-2-2z" fill="#9A4F1E"/>
<path transform="translate(461,1152)" d="m0 0h14l1 3v7h3l1-3v4h-5l-4-3 2-6-2 1h-8l-2-1z" fill="#9A4F1E"/>
<path transform="translate(369,1093)" d="m0 0h1l1 12-5-2-3-3v-6z" fill="#8E3B16"/>
<path transform="translate(302,1077)" d="m0 0 5 1 3 2v4h-2v-2l-7 1-1 3-4-2 1-3h3v-3z" fill="#8E3B16"/>
<path transform="translate(319,1149)" d="m0 0h14v3l-12 1-7 1-1-4z" fill="#8E3A16"/>
<path transform="translate(1381,974)" d="m0 0h7l-6 7-2 5-1-2h-2v-8l-3-1z" fill="#AC6F3C"/>
<path transform="translate(306,1076)" d="m0 0 11 1 6 15-1 3-6-12-2-1v-2h-3v-2h-6z" fill="#AD703C"/>
<path transform="translate(410,1103)" d="m0 0h1v7l-2 4-7-1 3-4-1-5z" fill="#994E1D"/>
<path transform="translate(461,1154)" d="m0 0h12v5l-2 2-7-1-2-1z" fill="#8F3C16"/>
<path transform="translate(284,905)" d="m0 0 2 1-3 7v4l-3 1-7 14-2-4 7-12z" fill="#B8814F"/>
<path transform="translate(294,1049)" d="m0 0h2l3 6v3l2 1-3 1h-10l1-4 3-2 3 4z" fill="#9D5423"/>
<path transform="translate(302,848)" d="m0 0 7 1 2 4h-8l-5 6h-2l2-5z" fill="#9D5524"/>
<path transform="translate(504,1128)" d="m0 0 1 2-3 7-2 5h-3l1-10z" fill="#903D17"/>
<path transform="translate(211,1009)" d="m0 0h4l-1 4v8l-4 1-2-7z" fill="#A05928"/>
<path transform="translate(1802,1030)" d="m0 0h1l1 32-3-2v-13z" fill="#A86635"/>
<path transform="translate(465,1016)" d="m0 0h18l-2 4-6 2-4-4-6-1z" fill="#9A4F1E"/>
<path transform="translate(269,940)" d="m0 0 2 2 3 9 2-1v8l3 1v7l-2 1-3-10-5-14z" fill="#C69667"/>
<path transform="translate(533,951)" d="m0 0h2v4l-3 3-8 16-2 1 2-6 4-9z" fill="#AD703C"/>
<path transform="translate(551,982)" d="m0 0h2l12 20-1 2-7-10-2-5-4 1z" fill="#B37946"/>
<path transform="translate(309,860)" d="m0 0h29v1l-8 1-1 2-9-1v-1l-11-1z" fill="#AC6E3B"/>
<path transform="translate(318,1062)" d="m0 0 2 3 3 11-4-2v-2h-2l-1-9z" fill="#FEFEFE"/>
<path transform="translate(338,860)" d="m0 0h24v1l-22 3z" fill="#BE8958"/>
<path transform="translate(481,1152)" d="m0 0h12l-1 5-2 1v-2l-9-1 1 4-2-1v-5z" fill="#9A4F1E"/>
<path transform="translate(506,1022)" d="m0 0 10 3 12 6 3 4-4-2-12-5-9-4z" fill="#9F5826"/>
<path transform="translate(499,1144)" d="m0 0 1 3-9 16-2-2 7-14z" fill="#B07441"/>
<path transform="translate(527,1094)" d="m0 0 1 2-10 19-2-2 9-17z" fill="#B17643"/>
<path transform="translate(1298,1048)" d="m0 0h1v12l-1 7h-5l2-5z" fill="#A15B2A"/>
<path transform="translate(267,936)" d="m0 0h2v7l-1-2-3 3-5 9-3 2 2-5z" fill="#B57C49"/>
<path transform="translate(392,1181)" d="m0 0h8l7 2v1h-18z" fill="#AD703C"/>
<path transform="translate(271,1053)" d="m0 0 2 1 2 5 2 2h-10l3-7z" fill="#9A4F1E"/>
<path transform="translate(1013,1017)" d="m0 0h1v15l-1 6-3-1 1-10h1z" fill="#C79768"/>
<path transform="translate(416,849)" d="m0 0h14l-2 3h-12z" fill="#FEFEFE"/>
<path transform="translate(483,870)" d="m0 0h3l1 9h-5v-8z" fill="#94451E"/>
<path transform="translate(1344,1034)" d="m0 0 5 5 1 3h2l6 8-4-2-10-10-1-3z" fill="#A56130"/>
<path transform="translate(1365,974)" d="m0 0 6 1v10l-3-3-3-5z" fill="#A4612E"/>
<path transform="translate(305,1148)" d="m0 0 6 1v3h-9l-2-3z" fill="#8E3A16"/>
<path transform="translate(259,1078)" d="m0 0h9v5l-5-1-4-2z" fill="#8F3B16"/>
<path transform="translate(238,1046)" d="m0 0 3 1 9 14-3 1-9-15z" fill="#B47B48"/>
<path transform="translate(526 1e3)" d="m0 0 3 1-2 1 12 5-3 1-15-5 2-2z" fill="#AD703C"/>
<path transform="translate(404,1131)" d="m0 0h5v13h-1l-1-9-6-1z" fill="#9A4F1E"/>
<path transform="translate(809,1044)" d="m0 0h2l-1 7h-2l-3 4-2-1z" fill="#A35F2E"/>
<path transform="translate(672,1029)" d="m0 0 12 1 1 2h-14z" fill="#C99A6B"/>
<path transform="translate(284,905)" d="m0 0 2 1-3 7v4l-6 2 2-4z" fill="#B57C4A"/>
<path transform="translate(293,889)" d="m0 0 2 2 1 11-2-4v-2l-4 1 2-6z" fill="#AD713D"/>
<path transform="translate(409,1122)" d="m0 0 1 3v6l-2-3-5-1-1-2z" fill="#9A4F1E"/>
<path transform="translate(308,862)" d="m0 0h1v9l-1 3-2-1v-4l-2 1 2-5z" fill="#B47A48"/>
<path transform="translate(478,1114)" d="m0 0h1l1 11-3 1-1-6z" fill="#8E3A16"/>
<path transform="translate(383,1131)" d="m0 0h7v3h-9v-2z" fill="#9A4F1E"/>
<path transform="translate(275,1051)" d="m0 0 4 4 1 4 2 1h-5l-2-5z" fill="#9C5422"/>
</svg>
