<svg xmlns="http://www.w3.org/2000/svg" xmlns:xlink="http://www.w3.org/1999/xlink" width="160" zoomAndPan="magnify" viewBox="0 0 120 32.249999" height="43" preserveAspectRatio="xMidYMid meet" version="1.0"><defs><clipPath id="21294da6ba"><path d="M 9.339844 6 L 34 6 L 34 28 L 9.339844 28 Z M 9.339844 6 " clip-rule="nonzero"/></clipPath><clipPath id="60b99985e9"><path d="M 9.339844 13 L 28 13 L 28 28 L 9.339844 28 Z M 9.339844 13 " clip-rule="nonzero"/></clipPath><clipPath id="758558bbb1"><path d="M 9.339844 16 L 12 16 L 12 20 L 9.339844 20 Z M 9.339844 16 " clip-rule="nonzero"/></clipPath><clipPath id="0b8ce74471"><path d="M 9.339844 16 L 11 16 L 11 18 L 9.339844 18 Z M 9.339844 16 " clip-rule="nonzero"/></clipPath></defs><path fill="#ad703c" d="M 16.054688 7.074219 L 19.355469 7.074219 L 27.078125 7.136719 L 27.886719 8.628906 L 29.445312 11.429688 L 30.253906 12.925781 L 30.8125 13.859375 L 31.3125 14.792969 L 32.121094 16.164062 L 32.371094 16.601562 L 32.371094 16.972656 L 31.5 18.59375 L 30.875 19.652344 L 30.066406 21.144531 L 29.257812 22.578125 L 28.386719 24.199219 L 27.761719 25.257812 L 27.015625 26.5625 L 16.054688 26.5625 L 15.558594 25.691406 L 14.746094 24.257812 L 13.875 22.703125 L 13.003906 21.082031 L 12.195312 19.652344 L 11.445312 18.34375 L 10.636719 16.910156 L 10.761719 16.539062 L 11.570312 15.042969 L 12.441406 13.550781 L 13.316406 11.992188 L 14.0625 10.621094 L 14.375 10.125 L 15.183594 8.628906 L 15.867188 7.382812 Z M 19.480469 7.195312 L 19.292969 7.320312 L 19.792969 7.382812 L 19.792969 7.195312 Z M 16.738281 7.257812 L 16.554688 7.382812 L 17.175781 7.382812 L 17.300781 7.257812 Z M 18.046875 7.257812 L 18.046875 7.320312 L 18.484375 7.382812 L 18.546875 7.257812 Z M 20.476562 7.257812 L 20.476562 7.320312 L 20.851562 7.320312 L 20.851562 7.257812 Z M 22.96875 7.320312 L 22.96875 26.4375 L 23.777344 26.4375 L 23.839844 7.382812 L 23.777344 7.320312 Z M 27.140625 7.695312 L 27.078125 7.757812 L 27.078125 8.132812 L 27.328125 8.132812 L 27.203125 7.695312 Z M 14.25 10.558594 L 13.875 11.308594 L 13.9375 11.867188 L 14.996094 14.980469 L 16.429688 19.152344 L 17.425781 22.082031 L 18.171875 24.320312 L 18.855469 26.316406 L 19.605469 26.378906 L 19.667969 26.191406 L 19.292969 24.945312 L 16.863281 17.660156 L 15.992188 15.167969 L 14.808594 11.742188 L 14.375 10.621094 Z M 30.378906 13.425781 L 29.878906 14.421875 L 29.382812 15.105469 L 28.820312 15.542969 L 28.136719 15.914062 L 28.136719 16.101562 L 28.570312 16.039062 L 29.320312 15.726562 L 29.941406 15.292969 L 30.378906 14.855469 L 30.75 14.296875 L 30.6875 13.921875 L 30.441406 13.425781 Z M 28.199219 16.476562 L 28.261719 16.664062 L 29.257812 17.097656 L 30.066406 17.660156 L 30.625 18.21875 L 31 18.78125 L 31.1875 18.78125 L 31.5 18.21875 L 31.4375 17.90625 L 30.8125 17.347656 L 30.066406 16.910156 L 29.132812 16.601562 Z M 28.074219 17.035156 L 28.136719 17.222656 L 28.261719 17.160156 L 28.261719 17.035156 Z M 28.074219 17.035156 " fill-opacity="1" fill-rule="nonzero"/><path fill="#9a4f1e" d="M 16.054688 7.136719 L 16.925781 7.136719 L 16.738281 7.195312 L 16.738281 7.320312 L 17.363281 7.320312 L 17.363281 7.195312 L 17.488281 7.136719 L 17.921875 7.136719 L 17.984375 7.320312 L 18.484375 7.320312 L 18.546875 7.195312 L 19.167969 7.136719 L 19.230469 7.382812 L 19.792969 7.382812 L 19.792969 7.195312 L 20.476562 7.195312 L 20.539062 7.320312 L 20.914062 7.382812 L 20.914062 7.195312 L 22.03125 7.195312 L 22.03125 7.257812 L 21.660156 7.320312 L 21.660156 7.382812 L 22.34375 7.507812 L 22.40625 7.695312 L 22.53125 8.941406 L 22.59375 10.683594 L 22.65625 13.796875 L 22.65625 18.28125 L 22.59375 20.710938 L 22.46875 23.511719 L 22.28125 26.128906 L 22.09375 26.316406 L 21.410156 26.316406 L 21.160156 26.191406 L 20.789062 25.378906 L 20.289062 24.136719 L 19.976562 23.449219 L 19.792969 23.636719 L 19.730469 24.757812 L 19.730469 25.257812 L 19.667969 25.691406 L 19.480469 25.691406 L 16.800781 17.660156 L 15.929688 15.167969 L 14.746094 11.742188 L 14.3125 10.621094 L 13.9375 11.308594 L 14 11.867188 L 14.558594 13.488281 L 14.558594 13.984375 L 14.3125 13.796875 L 14.1875 13.671875 L 14.125 13.238281 L 14 13.175781 L 13.9375 12.863281 L 13.8125 12.738281 L 13.625 12.242188 L 14 13.238281 L 14.0625 13.734375 L 14.1875 13.734375 L 14.5 14.730469 L 14.683594 15.105469 L 14.996094 16.164062 L 15.371094 17.222656 L 15.371094 17.410156 L 15.496094 17.410156 L 16.054688 19.152344 L 16.054688 19.464844 L 14.125 19.652344 L 12.195312 19.652344 L 11.445312 18.34375 L 10.636719 16.910156 L 10.761719 16.539062 L 11.570312 15.042969 L 12.441406 13.550781 L 13.316406 11.992188 L 14.0625 10.621094 L 14.375 10.125 L 15.183594 8.628906 L 15.867188 7.382812 Z M 16.054688 7.136719 " fill-opacity="1" fill-rule="nonzero"/><path fill="#c8996a" d="M 16.054688 7.074219 L 19.355469 7.074219 L 24.089844 7.136719 L 24.089844 7.195312 L 23.402344 7.257812 L 23.402344 7.320312 L 22.96875 7.320312 L 22.96875 26.4375 L 23.777344 26.4375 L 23.777344 7.632812 L 23.902344 7.445312 L 23.964844 8.007812 L 24.027344 8.253906 L 24.027344 9.128906 L 23.964844 9.4375 L 23.964844 13.113281 L 24.027344 14.234375 L 23.964844 14.484375 L 23.964844 20.210938 L 24.089844 20.648438 L 24.089844 21.769531 L 24.027344 22.082031 L 24.089844 22.203125 L 24.027344 22.765625 L 24.027344 23.636719 L 23.964844 24.445312 L 23.902344 26.316406 L 23.839844 26.5 L 25.148438 26.5 L 25.148438 26.5625 L 16.054688 26.5625 L 15.558594 25.691406 L 14.746094 24.257812 L 13.875 22.703125 L 13.003906 21.082031 L 12.257812 19.777344 L 12.257812 19.652344 L 14.125 19.589844 L 15.371094 19.464844 L 16.054688 19.464844 L 15.742188 18.40625 L 15.496094 17.660156 L 15.496094 17.410156 L 15.371094 17.410156 L 14.683594 15.417969 L 14.558594 14.980469 L 14.375 14.546875 L 14.1875 13.921875 L 14.1875 13.734375 L 14.0625 13.734375 L 13.875 13.113281 L 13.5625 12.242188 L 13.625 12.054688 L 13.875 12.738281 L 14 12.675781 L 14 13.175781 L 14.1875 13.238281 L 14.25 13.671875 L 14.375 13.609375 L 14.5 13.859375 L 14.621094 13.671875 L 15.929688 17.535156 L 16.863281 20.210938 L 17.734375 22.765625 L 18.609375 25.441406 L 18.855469 26.191406 L 18.855469 26.316406 L 19.605469 26.316406 L 19.542969 25.691406 L 19.667969 25.691406 L 19.667969 24.257812 L 19.730469 23.574219 L 19.976562 23.386719 L 20.476562 24.382812 L 20.726562 25.132812 L 21.160156 26.003906 L 21.222656 26.191406 L 21.410156 26.253906 L 22.21875 26.253906 L 22.40625 23.511719 L 22.53125 20.710938 L 22.59375 18.09375 L 22.59375 13.796875 L 22.53125 10.683594 L 22.46875 8.941406 L 22.34375 7.507812 L 21.660156 7.445312 L 21.660156 7.257812 L 20.914062 7.195312 L 20.914062 7.382812 L 20.539062 7.382812 L 20.476562 7.257812 L 19.480469 7.257812 L 19.542969 7.382812 L 19.230469 7.382812 L 19.167969 7.195312 L 18.546875 7.257812 L 17.984375 7.320312 L 17.921875 7.195312 L 17.363281 7.195312 L 17.300781 7.320312 L 16.738281 7.257812 L 16.738281 7.195312 L 16.054688 7.136719 Z M 16.054688 7.074219 " fill-opacity="1" fill-rule="nonzero"/><path fill="#994e1e" d="M 31.25 15.105469 L 31.375 15.105469 L 31.933594 15.976562 L 32.121094 16.164062 L 32.371094 16.601562 L 32.371094 16.972656 L 31.5 18.59375 L 30.875 19.652344 L 30.5625 20.148438 L 30.441406 20.148438 L 30.316406 20.460938 L 30.066406 20.835938 L 29.878906 21.269531 L 29.382812 22.082031 L 28.757812 23.261719 L 28.386719 23.824219 L 28.324219 24.011719 L 28.199219 24.011719 L 28.074219 24.320312 L 27.328125 25.816406 L 27.078125 25.941406 L 26.828125 25.941406 L 26.765625 25.691406 L 26.703125 25.941406 L 26.390625 25.941406 L 26.328125 25.878906 L 25.707031 25.753906 L 25.148438 25.378906 L 25.023438 25.007812 L 24.898438 20.523438 L 24.898438 19.089844 L 25.023438 17.285156 L 25.207031 16.847656 L 25.769531 16.785156 L 26.890625 16.785156 L 27.761719 16.910156 L 28.074219 17.035156 L 28.136719 17.160156 L 29.070312 17.535156 L 29.691406 17.84375 L 30.066406 18.09375 L 30.6875 18.84375 L 31 19.152344 L 31.0625 18.84375 L 31.1875 18.84375 L 31.25 18.53125 L 31.4375 18.21875 L 31.3125 17.597656 L 31.4375 17.410156 L 31.3125 17.097656 L 30.8125 16.785156 L 29.628906 16.351562 L 29.257812 16.226562 L 29.382812 16.101562 L 30.191406 15.789062 L 30.75 15.417969 L 31 15.355469 L 31.0625 15.167969 Z M 31.25 15.105469 " fill-opacity="1" fill-rule="nonzero"/><path fill="#9a4e1e" d="M 26.765625 7.320312 L 27.078125 7.507812 L 27.140625 8.132812 L 27.265625 8.070312 L 27.265625 7.632812 L 27.449219 7.820312 L 28.324219 9.4375 L 29.445312 11.429688 L 30.128906 12.675781 L 30.128906 12.988281 L 29.941406 13.175781 L 29.445312 14.171875 L 29.007812 14.730469 L 28.445312 15.230469 L 28.136719 15.292969 L 28.136719 15.417969 L 27.265625 15.789062 L 25.519531 15.789062 L 25.148438 15.667969 L 25.023438 15.230469 L 24.960938 14.546875 L 24.960938 12.179688 L 25.023438 11.058594 L 25.148438 8.378906 L 25.207031 7.945312 L 25.644531 7.632812 L 26.207031 7.507812 L 26.515625 7.382812 Z M 26.765625 7.320312 " fill-opacity="1" fill-rule="nonzero"/><path fill="#8e3a16" d="M 14.5 9.875 L 14.621094 9.9375 L 14.4375 10.371094 L 14.4375 10.621094 L 14.25 10.683594 L 13.9375 11.308594 L 14 11.867188 L 14.558594 13.488281 L 14.558594 13.984375 L 14.3125 13.796875 L 14.1875 13.671875 L 14.125 13.238281 L 14 13.175781 L 13.9375 12.863281 L 13.8125 12.738281 L 13.625 12.242188 L 14 13.238281 L 14.0625 13.734375 L 14.1875 13.734375 L 14.5 14.730469 L 14.683594 15.105469 L 14.996094 16.164062 L 15.371094 17.222656 L 15.371094 17.410156 L 15.496094 17.410156 L 16.054688 19.152344 L 16.054688 19.464844 L 14.125 19.652344 L 12.195312 19.652344 L 11.445312 18.34375 L 10.636719 16.910156 L 10.761719 16.539062 L 11.570312 15.042969 L 12.441406 13.550781 L 13.316406 11.992188 L 14.0625 10.621094 L 14.375 10.125 Z M 14.5 9.875 " fill-opacity="1" fill-rule="nonzero"/><g clip-path="url(#21294da6ba)"><path fill="#c69566" d="M 16.429688 6.261719 L 27.386719 6.324219 L 27.636719 6.574219 L 28.324219 7.882812 L 29.566406 10.0625 L 30.441406 11.617188 L 31.1875 12.925781 L 32.121094 14.609375 L 32.992188 16.164062 L 33.304688 16.664062 L 33.242188 17.097656 L 32.621094 18.15625 L 31.0625 20.960938 L 29.320312 24.074219 L 28.324219 25.878906 L 27.574219 27.1875 L 27.328125 27.375 L 15.679688 27.375 L 15.433594 27.0625 L 14.558594 25.503906 L 13.75 24.074219 L 12.941406 22.578125 L 12.070312 21.082031 L 11.261719 19.589844 L 10.449219 18.15625 L 9.890625 17.160156 L 9.765625 16.726562 L 10.699219 15.042969 L 11.507812 13.609375 L 12.441406 11.929688 L 13.253906 10.496094 L 14.125 8.941406 L 14.746094 7.882812 L 15.496094 6.449219 L 15.617188 6.324219 Z M 15.992188 6.636719 L 15.742188 6.761719 L 14.746094 8.566406 L 14.1875 9.5 L 13.253906 11.183594 L 12.257812 12.988281 L 11.382812 14.546875 L 10.449219 16.226562 L 10.203125 16.664062 L 10.261719 17.097656 L 11.011719 18.40625 L 11.445312 19.277344 L 12.195312 20.585938 L 13.191406 22.390625 L 14.0625 23.949219 L 14.683594 25.007812 L 15.617188 26.6875 L 15.804688 27 L 15.992188 27.0625 L 27.203125 27.0625 L 27.574219 26.5 L 28.324219 25.132812 L 29.132812 23.699219 L 30.003906 22.140625 L 31 20.335938 L 31.871094 18.78125 L 32.621094 17.410156 L 32.867188 16.910156 L 32.804688 16.539062 L 31.871094 14.855469 L 31.125 13.550781 L 30.316406 12.054688 L 29.691406 10.933594 L 28.820312 9.375 L 27.886719 7.757812 L 27.328125 6.699219 L 27.203125 6.636719 Z M 15.992188 6.636719 " fill-opacity="1" fill-rule="nonzero"/></g><path fill="#9a501f" d="M 13.003906 19.777344 L 14 19.839844 L 14.25 19.902344 L 14.5 20.273438 L 14.5 20.398438 L 15.308594 20.523438 L 16.117188 20.523438 L 16.554688 20.585938 L 16.925781 21.519531 L 17.300781 22.703125 L 17.300781 23.140625 L 17.425781 23.140625 L 17.921875 25.007812 L 18.046875 25.691406 L 18.046875 26.128906 L 17.363281 26.316406 L 17.550781 26.316406 L 17.488281 26.5 L 16.863281 26.5625 L 16.054688 26.5625 L 15.558594 25.691406 L 14.746094 24.257812 L 13.875 22.703125 L 13.003906 21.082031 L 12.378906 19.964844 L 12.378906 19.839844 Z M 13.003906 19.777344 " fill-opacity="1" fill-rule="nonzero"/><path fill="#c99a6b" d="M 14.808594 9.3125 L 15.121094 9.3125 L 15.496094 10.371094 L 15.679688 10.933594 L 16.179688 12.304688 L 16.429688 13.050781 L 16.492188 13.609375 L 16.617188 13.609375 L 16.988281 14.667969 L 18.109375 17.96875 L 18.546875 19.277344 L 18.734375 20.335938 L 18.792969 20.710938 L 18.792969 21.644531 L 18.855469 22.328125 L 18.609375 22.578125 L 18.671875 23.078125 L 18.546875 22.890625 L 16.800781 17.660156 L 15.929688 15.167969 L 14.746094 11.742188 L 14.375 10.746094 L 14.4375 10.1875 L 14.746094 9.4375 Z M 14.808594 9.3125 " fill-opacity="1" fill-rule="nonzero"/><path fill="#8e3a16" d="M 21.785156 12.675781 L 22.40625 12.738281 L 22.40625 13.363281 L 22.34375 13.425781 L 21.910156 13.425781 L 22.03125 13.984375 L 22.40625 14.046875 L 22.40625 14.792969 L 22.28125 15.042969 L 22.46875 15.355469 L 22.46875 17.097656 L 22.40625 17.285156 L 22.46875 17.84375 L 22.46875 18.03125 L 22.40625 18.40625 L 21.972656 18.40625 L 22.03125 18.90625 L 22.40625 19.089844 L 22.46875 19.214844 L 22.40625 19.714844 L 22.03125 19.777344 L 21.972656 20.148438 L 22.40625 20.398438 L 22.40625 20.960938 L 21.972656 21.082031 L 21.910156 21.457031 L 21.910156 21.582031 L 22.34375 21.582031 L 22.34375 22.265625 L 21.972656 22.265625 L 22.09375 22.578125 L 21.910156 22.765625 L 22.34375 22.890625 L 22.34375 23.949219 L 22.28125 24.757812 L 22.15625 24.945312 L 22.21875 24.945312 L 22.21875 25.257812 L 22.15625 25.441406 L 22.09375 26.066406 L 22.03125 26.191406 L 21.535156 26.253906 L 21.472656 26.191406 L 21.410156 25.132812 L 21.410156 24.507812 L 21.472656 24.136719 L 21.472656 24.074219 L 21.597656 23.761719 L 21.472656 23.574219 L 21.472656 22.203125 L 21.535156 21.582031 L 21.597656 21.519531 L 21.535156 20.648438 L 21.597656 19.964844 L 21.472656 19.902344 L 21.535156 19.027344 L 21.597656 18.71875 L 21.472656 18.46875 L 20.972656 18.46875 L 20.789062 18.40625 L 20.726562 18.59375 L 20.476562 18.65625 L 20.351562 18.40625 L 20.414062 18.15625 L 20.539062 18.03125 L 20.226562 17.90625 L 20.414062 17.535156 L 20.601562 17.472656 L 20.414062 17.285156 L 20.476562 16.726562 L 20.351562 16.414062 L 20.414062 16.226562 L 20.414062 15.605469 L 20.476562 15.105469 L 20.851562 14.980469 L 20.664062 14.917969 L 20.476562 14.730469 L 20.476562 13.984375 L 20.726562 13.984375 L 20.851562 13.671875 L 21.035156 13.609375 L 21.160156 13.796875 L 21.222656 14.609375 L 21.160156 14.855469 L 21.222656 15.542969 L 21.285156 15.605469 L 21.285156 15.976562 L 21.222656 16.289062 L 21.285156 16.726562 L 21.222656 16.910156 L 21.535156 16.785156 L 21.660156 15.726562 L 21.660156 14.792969 L 21.722656 14.421875 L 21.722656 12.738281 Z M 21.785156 12.675781 " fill-opacity="1" fill-rule="nonzero"/><path fill="#ad6f3c" d="M 108.28125 14.109375 L 109.277344 14.109375 L 109.277344 14.296875 L 109.152344 14.980469 L 109.152344 19.152344 L 109.277344 20.023438 L 108.34375 20.023438 L 107.96875 19.964844 L 108.09375 19.402344 L 108.21875 18.65625 L 108.21875 17.035156 L 105.230469 17.035156 L 105.167969 17.097656 L 105.042969 18.40625 L 105.105469 19.277344 L 105.355469 19.839844 L 105.292969 20.023438 L 104.605469 20.023438 L 104.171875 19.964844 L 104.109375 19.777344 L 104.234375 18.53125 L 104.234375 16.664062 L 104.109375 14.855469 L 103.859375 14.359375 L 103.734375 14.171875 L 105.414062 14.171875 L 105.292969 14.484375 L 105.167969 14.917969 L 105.105469 15.417969 L 105.105469 16.351562 L 105.601562 16.601562 L 108.21875 16.539062 L 108.15625 14.980469 L 107.90625 14.359375 L 107.90625 14.171875 Z M 108.28125 14.109375 " fill-opacity="1" fill-rule="nonzero"/><path fill="#ad703c" d="M 63.632812 14.109375 L 64.8125 14.171875 L 64.691406 14.792969 L 64.628906 16.289062 L 64.566406 19.027344 L 64.503906 20.085938 L 64.191406 19.964844 L 63.753906 19.527344 L 63.257812 19.089844 L 62.695312 18.53125 L 62.261719 18.03125 L 61.390625 17.097656 L 60.828125 16.476562 L 60.019531 15.667969 L 59.957031 16.847656 L 60.019531 18.09375 L 60.144531 19.277344 L 60.144531 19.777344 L 60.457031 19.902344 L 60.457031 20.023438 L 59.085938 20.023438 L 59.210938 19.777344 L 59.335938 19.652344 L 59.398438 19.402344 L 59.519531 16.726562 L 59.519531 14.171875 L 59.832031 14.234375 L 60.269531 14.667969 L 60.640625 14.980469 L 61.078125 15.480469 L 61.824219 16.289062 L 62.261719 16.785156 L 62.757812 17.285156 L 63.195312 17.785156 L 64.003906 18.59375 L 64.003906 17.285156 L 63.878906 15.292969 L 63.878906 14.546875 L 63.691406 14.484375 Z M 63.632812 14.109375 " fill-opacity="1" fill-rule="nonzero"/><path fill="#af733f" d="M 48.375 14.171875 L 49.992188 14.171875 L 49.867188 15.230469 L 49.804688 16.601562 L 52.984375 16.601562 L 52.859375 14.667969 L 52.671875 14.171875 L 54.042969 14.171875 L 53.855469 14.730469 L 53.855469 18.78125 L 53.917969 19.464844 L 54.101562 20.023438 L 53.292969 20.023438 L 52.796875 19.964844 L 52.796875 19.652344 L 52.921875 19.464844 L 52.984375 19.027344 L 52.984375 16.972656 L 49.804688 16.972656 L 49.804688 17.90625 L 49.867188 19.214844 L 50.054688 19.714844 L 50.054688 19.964844 L 48.871094 19.964844 L 48.996094 18.78125 L 48.996094 15.976562 L 48.871094 14.667969 Z M 48.375 14.171875 " fill-opacity="1" fill-rule="nonzero"/><path fill="#ae713d" d="M 81.816406 14.171875 L 83.246094 14.171875 L 82.875 14.609375 L 82.75 14.917969 L 82.6875 20.023438 L 82.375 19.964844 L 81.875 19.464844 L 81.378906 19.027344 L 80.507812 18.15625 L 80.070312 17.660156 L 79.386719 16.910156 L 78.949219 16.414062 L 78.515625 15.976562 L 78.140625 15.726562 L 78.203125 18.46875 L 78.453125 19.777344 L 78.515625 20.023438 L 77.640625 20.023438 L 77.332031 19.964844 L 77.457031 19.652344 L 77.582031 19.152344 L 77.640625 15.105469 L 77.703125 14.359375 L 77.890625 14.234375 L 78.453125 14.609375 L 79.386719 15.605469 L 79.945312 16.226562 L 80.570312 16.847656 L 81.003906 17.347656 L 82 18.40625 L 82.1875 18.59375 L 82.1875 15.480469 L 82.125 14.917969 L 81.816406 14.359375 Z M 81.816406 14.171875 " fill-opacity="1" fill-rule="nonzero"/><path fill="#ad703d" d="M 84.742188 14.171875 L 87.542969 14.171875 L 88.601562 14.359375 L 89.164062 14.609375 L 89.722656 15.042969 L 90.222656 15.914062 L 90.347656 16.414062 L 90.347656 17.785156 L 90.097656 18.46875 L 89.722656 19.089844 L 89.226562 19.527344 L 88.476562 19.902344 L 87.855469 20.023438 L 85.550781 20.023438 L 84.929688 19.964844 L 85.054688 19.214844 L 85.113281 17.722656 L 85.113281 15.105469 L 84.929688 14.609375 L 84.742188 14.296875 Z M 86.734375 14.484375 L 86.171875 14.667969 L 85.925781 15.105469 L 85.863281 15.292969 L 85.863281 18.964844 L 86.050781 19.402344 L 86.546875 19.714844 L 86.734375 19.777344 L 87.605469 19.777344 L 88.601562 19.402344 L 89.164062 18.90625 L 89.472656 18.34375 L 89.597656 17.785156 L 89.597656 16.785156 L 89.347656 16.039062 L 88.851562 15.355469 L 88.351562 14.980469 L 87.605469 14.609375 Z M 86.734375 14.484375 " fill-opacity="1" fill-rule="nonzero"/><path fill="#ae723e" d="M 69.171875 14.171875 L 71.226562 14.171875 L 71.851562 14.421875 L 72.226562 14.980469 L 72.285156 15.605469 L 71.914062 16.351562 L 71.601562 16.785156 L 71.914062 16.847656 L 72.347656 17.160156 L 72.722656 17.785156 L 72.847656 18.15625 L 72.847656 18.65625 L 72.472656 19.402344 L 71.976562 19.839844 L 71.664062 19.964844 L 71.289062 20.023438 L 69.546875 20.023438 L 69.109375 19.964844 L 69.171875 19.652344 L 69.359375 19.339844 L 69.359375 16.847656 L 69.296875 14.609375 L 69.109375 14.359375 Z M 70.355469 14.546875 L 70.167969 14.667969 L 70.105469 15.105469 L 70.105469 16.539062 L 70.542969 16.664062 L 71.042969 16.664062 L 71.351562 16.351562 L 71.539062 15.789062 L 71.476562 15.167969 L 71.226562 14.792969 L 71.042969 14.609375 L 70.855469 14.546875 Z M 70.230469 16.972656 L 70.167969 17.035156 L 70.105469 17.472656 L 70.105469 19.089844 L 70.355469 19.464844 L 70.667969 19.652344 L 71.289062 19.714844 L 71.789062 19.464844 L 71.976562 19.214844 L 72.039062 19.027344 L 72.039062 18.53125 L 71.789062 17.722656 L 71.476562 17.222656 L 71.105469 17.035156 Z M 70.230469 16.972656 " fill-opacity="1" fill-rule="nonzero"/><path fill="#c99b6c" d="M 13.5625 12.054688 L 13.6875 12.179688 L 13.875 12.738281 L 14 12.675781 L 14 13.175781 L 14.1875 13.238281 L 14.25 13.671875 L 14.375 13.609375 L 14.5 13.859375 L 14.621094 13.671875 L 15.929688 17.535156 L 16.863281 20.210938 L 17.734375 22.765625 L 18.609375 25.441406 L 18.792969 26.128906 L 18.609375 26.4375 L 19.042969 26.5 L 19.042969 26.5625 L 16.863281 26.5625 L 16.863281 26.5 L 17.488281 26.4375 L 17.300781 26.253906 L 18.046875 26.128906 L 17.796875 24.757812 L 17.425781 23.324219 L 17.425781 23.140625 L 17.300781 23.140625 L 17.175781 22.515625 L 16.617188 20.835938 L 16.554688 20.585938 L 15.308594 20.585938 L 14.621094 20.460938 L 14.4375 20.273438 L 14.25 20.023438 L 14.25 19.902344 L 13.003906 19.839844 L 12.320312 19.902344 L 12.257812 19.652344 L 14.125 19.589844 L 15.371094 19.464844 L 16.054688 19.464844 L 15.742188 18.40625 L 15.496094 17.660156 L 15.496094 17.410156 L 15.371094 17.410156 L 14.683594 15.417969 L 14.558594 14.980469 L 14.375 14.546875 L 14.1875 13.921875 L 14.1875 13.734375 L 14.0625 13.734375 L 13.875 13.113281 L 13.5625 12.242188 Z M 13.5625 12.054688 " fill-opacity="1" fill-rule="nonzero"/><path fill="#ae713e" d="M 44.574219 14.046875 L 45.757812 14.046875 L 47.128906 14.171875 L 47.378906 14.234375 L 47.253906 15.417969 L 47.128906 15.667969 L 46.753906 15.230469 L 46.320312 14.730469 L 45.945312 14.546875 L 45.570312 14.484375 L 44.761719 14.484375 L 44.265625 14.609375 L 43.765625 14.855469 L 43.269531 15.292969 L 42.957031 15.914062 L 42.832031 16.476562 L 42.832031 17.097656 L 43.082031 17.90625 L 43.453125 18.53125 L 43.953125 19.089844 L 44.574219 19.402344 L 45.136719 19.527344 L 45.882812 19.589844 L 46.445312 19.464844 L 46.816406 19.152344 L 47.191406 18.53125 L 47.316406 18.53125 L 47.253906 19.402344 L 47.066406 19.839844 L 46.628906 20.023438 L 45.945312 20.148438 L 44.949219 20.148438 L 44.078125 19.964844 L 43.207031 19.527344 L 42.582031 18.964844 L 42.273438 18.40625 L 42.085938 17.84375 L 42.023438 17.535156 L 42.023438 16.601562 L 42.210938 15.851562 L 42.644531 15.167969 L 43.144531 14.667969 L 43.765625 14.296875 L 44.203125 14.109375 Z M 44.574219 14.046875 " fill-opacity="1" fill-rule="nonzero"/><g clip-path="url(#60b99985e9)"><path fill="#b17643" d="M 11.320312 13.921875 L 11.507812 13.921875 L 11.445312 14.546875 L 10.511719 16.226562 L 10.261719 16.664062 L 10.324219 17.097656 L 11.074219 18.40625 L 11.507812 19.277344 L 12.257812 20.585938 L 13.253906 22.390625 L 14.125 23.949219 L 14.746094 25.007812 L 15.679688 26.6875 L 15.804688 26.9375 L 15.992188 27 L 23.902344 27 L 25.769531 27.0625 L 25.769531 27.125 L 25.457031 27.1875 L 25.582031 27.25 L 27.328125 27.3125 L 27.328125 27.375 L 15.679688 27.375 L 15.433594 27.0625 L 14.558594 25.503906 L 13.75 24.074219 L 12.941406 22.578125 L 12.070312 21.082031 L 11.261719 19.589844 L 10.449219 18.15625 L 9.890625 17.160156 L 9.765625 16.726562 L 10.699219 15.042969 Z M 11.320312 13.921875 " fill-opacity="1" fill-rule="nonzero"/></g><path fill="#9b5120" d="M 14.5 9.875 L 14.621094 9.9375 L 14.4375 10.371094 L 14.4375 10.621094 L 14.25 10.683594 L 13.9375 11.308594 L 14 11.867188 L 14.558594 13.488281 L 14.558594 13.984375 L 14.3125 13.796875 L 14.1875 13.671875 L 14.125 13.238281 L 14 13.175781 L 13.9375 12.863281 L 13.8125 12.738281 L 13.625 12.242188 L 14 13.238281 L 14.0625 13.609375 L 13.9375 13.609375 L 14.0625 13.921875 L 14.125 14.234375 L 14.1875 14.421875 L 13.875 14.855469 L 13.6875 14.792969 L 13.6875 14.484375 L 13.5 14.484375 L 13.5 14.109375 L 13.5625 13.984375 L 13.066406 14.046875 L 12.878906 13.984375 L 12.941406 14.421875 L 12.878906 14.546875 L 12.753906 14.546875 L 12.816406 14.730469 L 12.691406 14.917969 L 12.816406 14.980469 L 12.628906 15.355469 L 12.628906 15.667969 L 12.257812 15.667969 L 12.257812 15.292969 L 11.820312 15.355469 L 11.632812 15.976562 L 11.757812 15.976562 L 11.820312 16.226562 L 11.757812 16.351562 L 11.570312 16.351562 L 11.632812 17.035156 L 11.570312 17.347656 L 11.632812 17.597656 L 11.570312 17.722656 L 11.757812 18.34375 L 12.195312 18.40625 L 12.195312 18.53125 L 11.882812 18.59375 L 12.070312 18.65625 L 12.320312 18.65625 L 12.320312 18.964844 L 12.195312 19.027344 L 12.257812 19.214844 L 12.566406 19.089844 L 12.566406 18.964844 L 12.816406 19.089844 L 13.066406 19.527344 L 14.746094 19.527344 L 14.746094 19.589844 L 14.125 19.652344 L 12.195312 19.652344 L 11.445312 18.34375 L 10.636719 16.910156 L 10.761719 16.539062 L 11.570312 15.042969 L 12.441406 13.550781 L 13.316406 11.992188 L 14.0625 10.621094 L 14.375 10.125 Z M 14.5 9.875 " fill-opacity="1" fill-rule="nonzero"/><path fill="#af723f" d="M 38.785156 14.109375 L 39.035156 14.171875 L 39.84375 16.164062 L 40.777344 18.65625 L 41.214844 19.527344 L 41.398438 19.777344 L 41.398438 19.964844 L 40.339844 19.964844 L 39.71875 18.09375 L 39.59375 17.84375 L 38.035156 17.785156 L 37.789062 18.40625 L 37.476562 19.589844 L 37.476562 19.964844 L 36.417969 19.964844 L 36.792969 19.402344 L 37.414062 17.84375 L 38.035156 16.101562 L 38.535156 14.609375 Z M 38.847656 15.726562 L 38.472656 16.289062 L 38.160156 16.972656 L 38.035156 17.347656 L 38.035156 17.597656 L 38.660156 17.660156 L 39.34375 17.597656 L 39.40625 17.285156 L 38.972656 15.789062 Z M 38.847656 15.726562 " fill-opacity="1" fill-rule="nonzero"/><path fill="#ae723e" d="M 100.308594 14.109375 L 102.054688 14.109375 L 102.300781 14.171875 L 102.179688 15.230469 L 101.929688 15.105469 L 101.554688 14.609375 L 101.367188 14.484375 L 100.808594 14.484375 L 100.433594 14.667969 L 100.246094 15.105469 L 100.308594 15.667969 L 100.746094 16.164062 L 101.679688 16.972656 L 102.117188 17.410156 L 102.363281 17.96875 L 102.363281 18.78125 L 102.117188 19.402344 L 101.679688 19.839844 L 100.996094 20.085938 L 100 20.085938 L 99.5 19.902344 L 99.3125 19.714844 L 99.3125 18.964844 L 99.4375 18.65625 L 99.625 18.65625 L 99.8125 19.339844 L 100.121094 19.589844 L 100.433594 19.714844 L 100.996094 19.714844 L 101.429688 19.464844 L 101.617188 19.089844 L 101.617188 18.46875 L 101.367188 18.03125 L 100.746094 17.410156 L 100.246094 16.972656 L 99.6875 16.289062 L 99.5625 15.976562 L 99.5625 14.980469 L 99.8125 14.484375 L 100.183594 14.171875 Z M 100.308594 14.109375 " fill-opacity="1" fill-rule="nonzero"/><path fill="#c99b6d" d="M 30.128906 12.800781 L 30.316406 13.050781 L 30.8125 13.859375 L 31.3125 14.792969 L 31.996094 15.914062 L 31.933594 16.039062 L 31.5 15.417969 L 31.375 15.105469 L 31.0625 15.230469 L 31 15.355469 L 30.066406 15.914062 L 29.382812 16.164062 L 29.628906 16.289062 L 30.8125 16.726562 L 31.375 17.097656 L 31.5 17.472656 L 31.375 17.472656 L 31.3125 17.785156 L 30.8125 17.410156 L 30.066406 16.972656 L 29.132812 16.664062 L 28.199219 16.476562 L 28.074219 16.226562 L 28.136719 16.101562 L 29.070312 15.789062 L 29.816406 15.355469 L 30.316406 14.855469 L 30.6875 14.296875 L 30.625 13.921875 L 30.441406 13.488281 L 30.316406 13.671875 L 29.753906 14.730469 L 29.195312 15.355469 L 28.386719 15.851562 L 28.074219 15.976562 L 27.386719 16.039062 L 26.515625 16.039062 L 26.390625 15.914062 L 26.828125 15.789062 L 27.386719 15.667969 L 28.011719 15.417969 L 28.136719 15.417969 L 28.136719 15.292969 L 28.632812 15.042969 L 29.132812 14.546875 L 29.628906 13.734375 L 30.003906 12.988281 L 30.128906 12.988281 Z M 30.128906 12.800781 " fill-opacity="1" fill-rule="nonzero"/><path fill="#cc9f73" d="M 31.5 13.796875 L 31.683594 13.796875 L 32.496094 15.292969 L 33.304688 16.664062 L 33.242188 17.097656 L 32.621094 18.15625 L 31.0625 20.960938 L 29.320312 24.074219 L 28.324219 25.878906 L 27.574219 27.1875 L 27.449219 27.3125 L 25.582031 27.3125 L 25.394531 27.1875 L 25.769531 27.0625 L 27.203125 27 L 27.699219 26.128906 L 28.507812 24.695312 L 29.382812 23.140625 L 30.625 20.898438 L 31.5 19.339844 L 32.308594 17.84375 L 32.742188 17.097656 L 32.804688 16.726562 L 32.371094 15.851562 L 31.5 14.359375 L 31.4375 14.109375 Z M 31.5 13.796875 " fill-opacity="1" fill-rule="nonzero"/><path fill="#ae723e" d="M 91.839844 14.109375 L 92.648438 14.109375 L 93.210938 14.171875 L 92.898438 14.484375 L 92.835938 15.976562 L 92.835938 19.089844 L 93.023438 19.464844 L 93.398438 19.589844 L 94.457031 19.527344 L 94.953125 19.089844 L 95.078125 19.089844 L 95.078125 19.527344 L 94.953125 20.023438 L 92.464844 20.023438 L 91.839844 19.964844 L 91.777344 19.839844 L 92.027344 19.339844 L 92.027344 16.039062 L 91.964844 14.667969 Z M 91.839844 14.109375 " fill-opacity="1" fill-rule="nonzero"/><path fill="#ae723e" d="M 74.03125 14.171875 L 75.648438 14.171875 L 75.585938 14.421875 L 75.402344 15.042969 L 75.402344 19.277344 L 75.710938 19.839844 L 75.648438 20.023438 L 74.34375 20.023438 L 74.28125 19.839844 L 74.464844 19.339844 L 74.527344 18.21875 L 74.527344 15.167969 L 74.15625 14.421875 Z M 74.03125 14.171875 " fill-opacity="1" fill-rule="nonzero"/><path fill="#ae723e" d="M 87.730469 14.234375 L 88.414062 14.296875 L 89.101562 14.546875 L 89.722656 15.042969 L 90.222656 15.914062 L 90.347656 16.414062 L 90.347656 17.785156 L 90.097656 18.46875 L 89.722656 19.089844 L 89.226562 19.527344 L 88.664062 19.839844 L 88.105469 19.714844 L 87.917969 19.589844 L 88.601562 19.339844 L 89.101562 18.90625 L 89.410156 18.34375 L 89.535156 17.785156 L 89.535156 16.785156 L 89.289062 16.039062 L 88.851562 15.417969 L 88.351562 15.042969 L 87.605469 14.667969 L 86.734375 14.546875 L 86.546875 14.484375 L 86.921875 14.359375 L 86.921875 14.296875 Z M 87.730469 14.234375 " fill-opacity="1" fill-rule="nonzero"/><path fill="#ae713d" d="M 96.386719 14.171875 L 97.882812 14.171875 L 97.570312 14.484375 L 97.445312 14.484375 L 97.382812 16.226562 L 97.382812 19.589844 L 97.632812 19.714844 L 97.757812 20.023438 L 96.882812 20.023438 L 96.386719 19.964844 L 96.386719 19.589844 L 96.449219 19.464844 L 96.511719 18.09375 L 96.511719 14.667969 L 96.386719 14.421875 Z M 96.386719 14.171875 " fill-opacity="1" fill-rule="nonzero"/><path fill="#ae723e" d="M 55.972656 14.109375 L 57.21875 14.171875 L 57.402344 14.234375 L 57.277344 14.609375 L 57.21875 14.667969 L 57.15625 15.355469 L 57.15625 19.339844 L 57.464844 19.652344 L 57.589844 19.902344 L 57.527344 19.964844 L 56.035156 19.964844 L 56.160156 19.714844 L 56.28125 19.339844 L 56.34375 18.46875 L 56.34375 14.609375 L 55.972656 14.234375 Z M 55.972656 14.109375 " fill-opacity="1" fill-rule="nonzero"/><path fill="#fefefe" d="M 16.179688 12.800781 L 16.304688 12.925781 L 16.863281 14.546875 L 17.175781 15.726562 L 17.675781 17.097656 L 17.796875 18.09375 L 17.859375 18.71875 L 17.859375 19.277344 L 17.675781 19.339844 L 17.488281 19.152344 L 16.863281 17.347656 L 16.242188 15.480469 L 15.992188 14.667969 L 15.929688 13.984375 L 15.867188 13.859375 L 15.992188 12.988281 Z M 16.179688 12.800781 " fill-opacity="1" fill-rule="nonzero"/><path fill="#9b5120" d="M 31.25 15.105469 L 31.375 15.105469 L 31.933594 15.976562 L 32.121094 16.164062 L 32.371094 16.601562 L 32.371094 16.972656 L 31.5 18.59375 L 30.9375 19.527344 L 30.75 19.277344 L 30.503906 18.84375 L 30.253906 18.53125 L 30.316406 18.40625 L 30.875 19.089844 L 31 19.152344 L 31.0625 18.84375 L 31.1875 18.84375 L 31.25 18.53125 L 31.4375 18.21875 L 31.3125 17.597656 L 31.4375 17.410156 L 31.3125 17.097656 L 30.8125 16.785156 L 29.628906 16.351562 L 29.257812 16.226562 L 29.382812 16.101562 L 30.191406 15.789062 L 30.75 15.417969 L 31 15.355469 L 31.0625 15.167969 Z M 31.25 15.105469 " fill-opacity="1" fill-rule="nonzero"/><path fill="#ad713d" d="M 18.546875 19.339844 L 18.671875 19.464844 L 19.480469 22.019531 L 20.101562 23.386719 L 20.039062 23.574219 L 19.914062 23.449219 L 19.792969 23.699219 L 19.730469 24.757812 L 19.730469 25.257812 L 19.667969 25.691406 L 19.480469 25.691406 L 18.734375 23.449219 L 18.546875 22.515625 L 18.792969 22.453125 L 18.734375 21.269531 L 18.734375 20.648438 L 18.546875 19.777344 Z M 18.546875 19.339844 " fill-opacity="1" fill-rule="nonzero"/><path fill="#c8996a" d="M 23.839844 7.445312 L 23.902344 7.445312 L 23.964844 8.007812 L 24.027344 8.253906 L 24.027344 9.128906 L 23.964844 9.4375 L 23.964844 13.113281 L 24.027344 14.234375 L 23.964844 14.484375 L 23.964844 20.210938 L 24.089844 20.648438 L 24.089844 21.769531 L 24.027344 22.082031 L 24.089844 22.203125 L 24.027344 22.765625 L 24.027344 23.636719 L 23.964844 24.445312 L 23.902344 26.316406 L 23.777344 26.316406 L 23.777344 7.632812 Z M 23.839844 7.445312 " fill-opacity="1" fill-rule="nonzero"/><path fill="#cb9e71" d="M 22.84375 27 L 23.902344 27 L 25.769531 27.0625 L 25.769531 27.125 L 25.457031 27.1875 L 25.582031 27.25 L 27.328125 27.3125 L 27.328125 27.375 L 15.679688 27.375 L 15.679688 27.3125 L 17.613281 27.25 L 17.613281 27.1875 L 17.300781 27.125 L 17.300781 27.0625 Z M 22.84375 27 " fill-opacity="1" fill-rule="nonzero"/><path fill="#c99a6c" d="M 30.128906 12.800781 L 30.316406 13.050781 L 30.8125 13.859375 L 30.875 14.296875 L 30.6875 14.046875 L 30.441406 13.488281 L 30.316406 13.671875 L 29.753906 14.730469 L 29.195312 15.355469 L 28.386719 15.851562 L 28.074219 15.976562 L 27.386719 16.039062 L 26.515625 16.039062 L 26.390625 15.914062 L 26.828125 15.789062 L 27.386719 15.667969 L 28.011719 15.417969 L 28.136719 15.417969 L 28.136719 15.292969 L 28.632812 15.042969 L 29.132812 14.546875 L 29.628906 13.734375 L 30.003906 12.988281 L 30.128906 12.988281 Z M 30.128906 12.800781 " fill-opacity="1" fill-rule="nonzero"/><path fill="#b17642" d="M 31.5 13.796875 L 31.683594 13.796875 L 32.496094 15.292969 L 33.304688 16.664062 L 33.242188 17.097656 L 32.621094 18.15625 L 31.746094 19.714844 L 31.5 19.777344 L 31.4375 19.464844 L 32.308594 17.84375 L 32.742188 17.097656 L 32.804688 16.726562 L 32.371094 15.851562 L 31.5 14.359375 L 31.4375 14.109375 Z M 31.5 13.796875 " fill-opacity="1" fill-rule="nonzero"/><path fill="#8e3a16" d="M 16.675781 22.765625 L 16.738281 22.890625 L 17.238281 22.890625 L 17.363281 23.140625 L 17.363281 23.511719 L 16.738281 23.511719 L 16.800781 23.699219 L 17.300781 23.761719 L 17.300781 23.949219 L 16.800781 24.074219 L 17.300781 24.136719 L 17.488281 24.632812 L 17.425781 24.820312 L 17.300781 24.882812 L 16.617188 24.882812 L 16.554688 25.070312 L 16.429688 24.882812 L 16.492188 24.570312 L 16.367188 24.445312 L 16.429688 24.257812 L 16.179688 24.320312 L 16.179688 24.570312 L 16.367188 24.632812 L 16.117188 24.882812 L 15.371094 24.820312 L 15.496094 24.199219 L 15.371094 24.199219 L 15.308594 23.886719 L 15.496094 23.636719 L 15.558594 23.699219 L 15.992188 23.761719 L 16.117188 23.949219 L 16.054688 24.011719 L 15.558594 24.074219 L 16.242188 24.136719 L 16.304688 23.886719 L 16.675781 23.824219 L 16.492188 23.261719 L 16.492188 22.890625 Z M 16.675781 22.765625 " fill-opacity="1" fill-rule="nonzero"/><path fill="#8f3c16" d="M 27.699219 17.035156 L 28.011719 17.097656 L 28.570312 17.347656 L 29.503906 17.722656 L 29.878906 17.96875 L 30.128906 18.28125 L 30.066406 18.59375 L 29.878906 18.65625 L 29.878906 18.46875 L 29.320312 18.59375 L 29.070312 18.46875 L 29.070312 17.96875 L 28.882812 18.03125 L 28.820312 18.46875 L 28.695312 18.53125 L 28.386719 18.46875 L 28.074219 18.53125 L 27.824219 18.34375 L 27.824219 17.597656 L 27.699219 17.285156 Z M 27.699219 17.035156 " fill-opacity="1" fill-rule="nonzero"/><path fill="#8e3a16" d="M 26.703125 23.699219 L 27.203125 23.699219 L 27.511719 23.824219 L 27.449219 23.949219 L 26.890625 24.011719 L 26.765625 24.320312 L 26.765625 24.695312 L 26.828125 24.136719 L 27.511719 24.074219 L 27.574219 24.820312 L 27.511719 24.882812 L 26.390625 24.882812 L 26.328125 24.257812 L 26.265625 24.820312 L 26.207031 24.882812 L 25.707031 24.882812 L 25.519531 24.757812 L 25.519531 24.257812 L 25.394531 24.199219 L 25.394531 24.695312 L 25.332031 25.007812 L 25.207031 24.757812 L 25.269531 23.949219 L 25.582031 23.949219 L 25.582031 23.761719 L 26.019531 23.761719 L 26.328125 23.886719 L 26.515625 23.949219 L 26.640625 23.886719 Z M 26.703125 23.699219 " fill-opacity="1" fill-rule="nonzero"/><path fill="#ad713d" d="M 13.003906 19.777344 L 14 19.839844 L 14.25 19.902344 L 14.5 20.273438 L 14.5 20.398438 L 15.617188 20.585938 L 15.371094 20.773438 L 15.371094 20.648438 L 14.871094 20.710938 L 14.3125 20.648438 L 14.0625 20.710938 L 12.941406 20.648438 L 13.4375 21.519531 L 13.9375 22.515625 L 14.25 23.015625 L 14.125 23.140625 L 13.5 22.019531 L 12.628906 20.398438 L 12.378906 19.964844 L 12.378906 19.839844 Z M 13.003906 19.777344 " fill-opacity="1" fill-rule="nonzero"/><path fill="#cc9f73" d="M 14.125 8.941406 L 14.1875 9.128906 L 14.1875 9.3125 L 14.25 9.5 L 13.316406 11.183594 L 12.320312 12.988281 L 11.507812 14.421875 L 11.445312 14.234375 L 11.507812 13.921875 L 11.382812 13.859375 L 12.195312 12.367188 L 12.753906 11.371094 L 13.5625 9.9375 Z M 14.125 8.941406 " fill-opacity="1" fill-rule="nonzero"/><path fill="#9a4f1e" d="M 22.53125 18.40625 L 22.59375 18.40625 L 22.59375 20.710938 L 22.46875 23.511719 L 22.28125 26.128906 L 22.21875 26.253906 L 22.09375 26.191406 L 22.15625 25.566406 L 22.09375 25.320312 L 22.15625 25.007812 L 21.972656 24.882812 L 22.21875 24.757812 L 22.28125 23.574219 L 22.28125 22.890625 L 21.847656 22.828125 L 22.03125 22.578125 L 21.972656 22.265625 L 22.34375 22.265625 L 22.34375 21.582031 L 21.910156 21.582031 L 21.847656 21.207031 L 22.03125 20.960938 L 22.40625 20.960938 L 22.34375 20.398438 L 21.972656 20.210938 L 21.910156 19.902344 L 22.03125 19.714844 L 22.40625 19.714844 L 22.40625 19.277344 L 22.46875 19.214844 Z M 22.53125 18.40625 " fill-opacity="1" fill-rule="nonzero"/><path fill="#cca074" d="M 29.007812 9.191406 L 29.195312 9.375 L 29.878906 10.621094 L 30.75 12.117188 L 31.621094 13.734375 L 31.5 13.796875 L 31.5 14.109375 L 31.375 14.109375 L 30.503906 12.492188 L 29.753906 11.183594 L 29.007812 9.8125 L 28.945312 9.625 Z M 29.007812 9.191406 " fill-opacity="1" fill-rule="nonzero"/><path fill="#b07541" d="M 13.9375 24.074219 L 14.25 24.136719 L 15.121094 25.691406 L 15.742188 26.8125 L 15.804688 26.9375 L 15.992188 27 L 17.300781 27.0625 L 18.046875 27.1875 L 18.046875 27.25 L 17.613281 27.3125 L 15.617188 27.3125 L 15.246094 26.75 L 13.875 24.257812 Z M 13.9375 24.074219 " fill-opacity="1" fill-rule="nonzero"/><path fill="#8e3a16" d="M 21.785156 8.941406 L 22.34375 8.941406 L 22.34375 9.5 L 21.972656 9.625 L 21.972656 10.125 L 22.34375 10.1875 L 22.34375 10.808594 L 21.847656 10.808594 L 21.847656 10.933594 L 22.40625 10.996094 L 22.40625 11.183594 L 21.847656 11.183594 L 21.910156 11.371094 L 22.40625 11.429688 L 22.40625 12.117188 L 21.910156 12.179688 L 22.34375 12.242188 L 22.40625 12.492188 L 22.28125 12.550781 L 21.785156 12.492188 L 21.722656 12.242188 L 21.722656 11.183594 L 21.660156 10.808594 L 21.660156 9.5 L 21.722656 9.003906 Z M 21.785156 8.941406 " fill-opacity="1" fill-rule="nonzero"/><path fill="#b07542" d="M 16.429688 6.261719 L 17.425781 6.324219 L 17.859375 6.511719 L 18.234375 6.574219 L 18.234375 6.636719 L 15.992188 6.699219 L 15.804688 6.761719 L 14.808594 8.566406 L 14.3125 9.375 L 14.0625 9.253906 L 14.3125 8.628906 L 14.933594 7.507812 L 15.496094 6.449219 L 15.617188 6.324219 Z M 16.429688 6.261719 " fill-opacity="1" fill-rule="nonzero"/><path fill="#cca074" d="M 11.632812 19.589844 L 11.882812 19.902344 L 12.691406 21.394531 L 13.5 22.828125 L 14.1875 24.011719 L 14.0625 24.074219 L 14 24.199219 L 13.75 24.074219 L 12.941406 22.578125 L 12.070312 21.082031 L 11.445312 19.964844 Z M 11.632812 19.589844 " fill-opacity="1" fill-rule="nonzero"/><path fill="#a05827" d="M 26.019531 6.324219 L 27.386719 6.324219 L 27.636719 6.574219 L 28.324219 7.882812 L 28.820312 8.753906 L 29.007812 9.066406 L 29.070312 9.5 L 29.007812 9.625 L 28.882812 9.625 L 28.261719 8.503906 L 27.699219 7.507812 L 27.328125 6.824219 L 27.328125 6.699219 L 26.019531 6.636719 L 25.207031 6.511719 L 25.207031 6.449219 Z M 26.019531 6.324219 " fill-opacity="1" fill-rule="nonzero"/><path fill="#9e5625" d="M 29.007812 23.886719 L 29.070312 24.136719 L 28.882812 24.820312 L 28.324219 25.878906 L 27.574219 27.1875 L 27.449219 27.3125 L 25.582031 27.3125 L 25.394531 27.1875 L 25.769531 27.0625 L 27.203125 27 L 27.699219 26.128906 L 28.507812 24.695312 L 28.945312 23.949219 Z M 29.007812 23.886719 " fill-opacity="1" fill-rule="nonzero"/><path fill="#8e3a16" d="M 20.664062 8.816406 L 21.035156 8.816406 L 21.285156 9.3125 L 21.285156 9.5625 L 21.160156 9.5625 L 21.285156 10 L 21.347656 10.25 L 21.347656 10.683594 L 21.285156 10.808594 L 20.476562 10.808594 L 20.414062 9.75 L 20.476562 8.941406 Z M 20.664062 8.816406 " fill-opacity="1" fill-rule="nonzero"/><path fill="#8e3a16" d="M 28.136719 12.675781 L 28.757812 12.738281 L 28.757812 13.425781 L 28.386719 13.425781 L 28.507812 13.734375 L 28.507812 13.859375 L 28.695312 13.859375 L 28.820312 14.046875 L 28.820312 14.667969 L 28.695312 14.792969 L 28.386719 14.667969 L 28.445312 14.855469 L 28.386719 15.167969 L 28.261719 15.167969 L 28.261719 15.292969 L 27.949219 15.355469 L 27.886719 15.105469 L 27.949219 14.667969 L 28.011719 14.546875 L 28.011719 14.046875 L 28.199219 13.921875 L 28.386719 13.984375 L 28.261719 13.859375 L 28.011719 13.859375 L 27.949219 13.300781 L 28.074219 13.050781 L 28.074219 12.738281 Z M 28.136719 12.675781 " fill-opacity="1" fill-rule="nonzero"/><path fill="#af7340" d="M 14.5 9.875 L 14.621094 9.9375 L 14.4375 10.371094 L 14.4375 10.621094 L 14.25 10.683594 L 13.9375 11.308594 L 14 11.867188 L 14.558594 13.488281 L 14.558594 13.984375 L 14.3125 13.796875 L 14.1875 13.671875 L 14.125 13.238281 L 14 13.175781 L 13.9375 12.863281 L 13.8125 12.738281 L 13.625 12.179688 L 13.5 12.242188 L 13.5 12.117188 L 13.316406 12.304688 L 13.003906 12.863281 L 12.816406 12.988281 L 12.941406 12.675781 L 13.6875 11.308594 L 14.125 10.558594 Z M 14.5 9.875 " fill-opacity="1" fill-rule="nonzero"/><path fill="#cb9d70" d="M 28.261719 16.664062 L 28.882812 16.847656 L 29.753906 17.347656 L 30.503906 18.03125 L 31 18.65625 L 31 18.78125 L 31.1875 18.84375 L 31.0625 18.84375 L 31 19.152344 L 30.75 19.027344 L 30.066406 18.15625 L 29.566406 17.722656 L 28.507812 17.035156 L 28.199219 16.726562 Z M 28.261719 16.664062 " fill-opacity="1" fill-rule="nonzero"/><path fill="#c99a6b" d="M 21.597656 6.324219 L 26.019531 6.324219 L 26.019531 6.386719 L 25.582031 6.449219 L 25.519531 6.511719 L 26.019531 6.574219 L 26.019531 6.636719 L 21.785156 6.636719 L 21.785156 6.511719 L 21.597656 6.449219 Z M 21.597656 6.324219 " fill-opacity="1" fill-rule="nonzero"/><path fill="#ad703d" d="M 78.078125 18.46875 L 78.203125 18.46875 L 78.453125 19.777344 L 78.515625 20.023438 L 77.640625 20.023438 L 77.332031 19.964844 L 77.457031 19.652344 L 77.582031 19.152344 L 77.640625 18.59375 L 77.953125 18.53125 Z M 78.078125 18.46875 " fill-opacity="1" fill-rule="nonzero"/><path fill="#8e3a16" d="M 25.769531 16.785156 L 26.890625 16.785156 L 27.449219 16.910156 L 27.574219 17.035156 L 27.574219 17.347656 L 27.328125 17.410156 L 27.203125 17.160156 L 26.765625 17.472656 L 26.515625 17.410156 L 26.453125 17.347656 L 25.957031 17.285156 L 25.644531 17.410156 L 25.269531 17.410156 L 25.269531 16.972656 Z M 25.769531 16.785156 " fill-opacity="1" fill-rule="nonzero"/><g clip-path="url(#758558bbb1)"><path fill="#b17743" d="M 10.140625 16.726562 L 10.261719 16.972656 L 11.011719 18.34375 L 11.632812 19.464844 L 11.570312 19.777344 L 11.382812 19.839844 L 10.449219 18.15625 L 9.953125 17.285156 L 9.953125 17.160156 L 10.078125 17.035156 Z M 10.140625 16.726562 " fill-opacity="1" fill-rule="nonzero"/></g><path fill="#8f3c16" d="M 25.582031 23.761719 L 26.019531 23.761719 L 26.328125 23.886719 L 26.515625 24.011719 L 26.453125 24.199219 L 26.328125 24.257812 L 26.265625 24.820312 L 26.207031 24.882812 L 25.707031 24.882812 L 25.519531 24.757812 L 25.519531 24.257812 L 25.394531 24.199219 L 25.394531 24.695312 L 25.332031 25.007812 L 25.207031 24.757812 L 25.269531 23.949219 L 25.582031 23.949219 Z M 25.582031 23.761719 " fill-opacity="1" fill-rule="nonzero"/><path fill="#ad703c" d="M 22.28125 7.507812 L 22.40625 7.695312 L 22.53125 8.941406 L 22.59375 10.683594 L 22.65625 13.796875 L 22.65625 18.09375 L 22.59375 18.09375 L 22.46875 12.550781 L 22.40625 9.75 L 22.28125 8.070312 Z M 22.28125 7.507812 " fill-opacity="1" fill-rule="nonzero"/><path fill="#8e3a16" d="M 25.519531 25.070312 L 27.574219 25.070312 L 27.449219 25.566406 L 27.328125 25.816406 L 27.078125 25.941406 L 26.828125 25.941406 L 26.703125 25.691406 L 26.640625 25.878906 L 26.453125 25.878906 L 26.453125 25.441406 L 26.328125 25.378906 L 26.390625 25.257812 L 25.582031 25.320312 L 25.394531 25.320312 Z M 25.519531 25.070312 " fill-opacity="1" fill-rule="nonzero"/><path fill="#b17643" d="M 32.742188 17.097656 L 32.867188 17.347656 L 32.804688 17.535156 L 32.929688 17.597656 L 31.933594 19.402344 L 31.746094 19.714844 L 31.5 19.777344 L 31.4375 19.464844 L 32.308594 17.84375 Z M 32.742188 17.097656 " fill-opacity="1" fill-rule="nonzero"/><path fill="#ae713e" d="M 30.9375 16.785156 L 31.3125 16.910156 L 31.933594 17.285156 L 32.121094 17.347656 L 31.996094 17.660156 L 31.3125 18.90625 L 30.9375 19.527344 L 30.75 19.277344 L 30.503906 18.84375 L 30.253906 18.53125 L 30.316406 18.40625 L 30.875 19.089844 L 31 19.152344 L 31.0625 18.84375 L 31.1875 18.84375 L 31.25 18.53125 L 31.4375 18.21875 L 31.3125 17.597656 L 31.4375 17.410156 L 31.3125 17.097656 L 30.9375 16.847656 Z M 30.9375 16.785156 " fill-opacity="1" fill-rule="nonzero"/><path fill="#8e3b16" d="M 20.289062 23.699219 L 21.160156 23.761719 L 21.222656 23.824219 L 21.222656 24.882812 L 20.601562 24.882812 L 20.289062 23.949219 Z M 20.289062 23.699219 " fill-opacity="1" fill-rule="nonzero"/><path fill="#af733f" d="M 30.441406 20.148438 L 30.5625 20.210938 L 29.753906 21.707031 L 28.199219 24.507812 L 27.386719 25.941406 L 27.265625 25.816406 L 27.761719 24.820312 L 28.199219 24.011719 L 28.324219 24.011719 L 28.386719 23.699219 L 28.945312 22.828125 L 29.566406 21.644531 L 29.941406 21.082031 L 30.128906 20.648438 Z M 30.441406 20.148438 " fill-opacity="1" fill-rule="nonzero"/><path fill="#ad703c" d="M 14.746094 25.691406 L 14.996094 25.941406 L 15.433594 26.625 L 15.558594 26.625 L 15.804688 26.9375 L 15.992188 27 L 17.300781 27.0625 L 18.046875 27.1875 L 18.046875 27.25 L 17.613281 27.3125 L 15.617188 27.3125 L 15.246094 26.75 L 14.746094 25.816406 Z M 14.746094 25.691406 " fill-opacity="1" fill-rule="nonzero"/><path fill="#b17542" d="M 29.007812 23.886719 L 29.070312 24.136719 L 28.882812 24.820312 L 28.324219 25.878906 L 27.824219 26.75 L 27.761719 26.5625 L 28.011719 26.003906 L 27.761719 26.128906 L 27.886719 25.816406 L 28.820312 24.136719 Z M 29.007812 23.886719 " fill-opacity="1" fill-rule="nonzero"/><path fill="#ab6c39" d="M 63.632812 14.109375 L 64.066406 14.109375 L 64.378906 14.171875 L 64.253906 14.421875 L 64.191406 14.609375 L 64.128906 17.96875 L 64.066406 17.96875 L 63.878906 15.292969 L 63.878906 14.546875 L 63.691406 14.484375 Z M 63.632812 14.109375 " fill-opacity="1" fill-rule="nonzero"/><path fill="#ad703c" d="M 22.53125 18.40625 L 22.59375 18.40625 L 22.59375 20.710938 L 22.46875 23.511719 L 22.28125 26.128906 L 22.21875 26.253906 L 22.09375 26.191406 L 22.15625 25.566406 L 22.09375 25.320312 L 22.15625 25.007812 L 21.972656 24.882812 L 22.21875 24.757812 L 22.34375 22.640625 Z M 22.53125 18.40625 " fill-opacity="1" fill-rule="nonzero"/><path fill="#c99a6b" d="M 64.191406 14.359375 L 64.378906 14.359375 L 64.378906 16.972656 L 64.316406 17.097656 L 64.253906 17.96875 L 64.128906 17.96875 L 64.128906 14.484375 Z M 64.191406 14.359375 " fill-opacity="1" fill-rule="nonzero"/><path fill="#9b5020" d="M 15.121094 17.160156 L 15.371094 17.472656 L 15.496094 17.410156 L 16.054688 19.152344 L 16.054688 19.464844 L 15.867188 19.402344 L 15.867188 19.277344 L 15.617188 19.027344 L 15.433594 18.46875 L 15.558594 18.34375 L 15.308594 18.21875 L 15.121094 17.84375 L 15.121094 17.660156 L 14.933594 17.597656 L 14.933594 17.222656 Z M 15.121094 17.160156 " fill-opacity="1" fill-rule="nonzero"/><path fill="#ad703c" d="M 16.429688 6.261719 L 17.425781 6.324219 L 17.859375 6.511719 L 18.234375 6.574219 L 18.234375 6.636719 L 15.679688 6.636719 L 15.371094 7.011719 L 15.246094 7.011719 L 15.371094 6.699219 L 15.617188 6.324219 Z M 16.429688 6.261719 " fill-opacity="1" fill-rule="nonzero"/><path fill="#8e3a16" d="M 20.851562 10.996094 L 21.160156 11.121094 L 21.285156 11.742188 L 21.160156 12.117188 L 20.539062 12.117188 L 20.476562 12.054688 L 20.476562 11.371094 L 20.726562 11.246094 L 20.726562 11.058594 Z M 20.851562 10.996094 " fill-opacity="1" fill-rule="nonzero"/><path fill="#8e3b16" d="M 16.367188 25.441406 L 16.675781 25.503906 L 16.675781 25.878906 L 16.800781 25.878906 L 16.738281 25.441406 L 17.300781 25.441406 L 17.363281 25.503906 L 17.363281 25.878906 L 17.488281 25.878906 L 17.488281 26.128906 L 17.175781 26.191406 L 16.492188 26.191406 L 16.429688 25.941406 Z M 16.367188 25.441406 " fill-opacity="1" fill-rule="nonzero"/><path fill="#8e3a16" d="M 20.476562 18.90625 L 20.601562 18.90625 L 20.601562 19.027344 L 21.160156 18.964844 L 21.222656 19.402344 L 21.222656 19.714844 L 20.972656 19.902344 L 20.726562 19.902344 L 20.476562 19.777344 L 20.414062 19.339844 L 20.226562 19.152344 L 20.351562 19.152344 L 20.351562 18.964844 Z M 20.476562 18.90625 " fill-opacity="1" fill-rule="nonzero"/><path fill="#c99a6b" d="M 107.90625 16.539062 L 108.21875 16.539062 L 108.15625 16.847656 L 105.789062 16.847656 L 105.355469 16.785156 L 105.355469 16.664062 L 105.601562 16.601562 Z M 107.90625 16.539062 " fill-opacity="1" fill-rule="nonzero"/><path fill="#8e3a16" d="M 20.851562 12.304688 L 21.097656 12.429688 L 21.160156 12.800781 L 21.160156 13.363281 L 20.972656 13.425781 L 20.539062 13.425781 L 20.476562 13.363281 L 20.476562 12.613281 L 20.664062 12.675781 L 20.789062 12.429688 Z M 20.851562 12.304688 " fill-opacity="1" fill-rule="nonzero"/><path fill="#b17643" d="M 27.949219 7.320312 L 28.136719 7.507812 L 29.007812 9.066406 L 29.070312 9.5 L 29.007812 9.625 L 28.882812 9.625 L 28.261719 8.503906 L 28.074219 8.195312 L 28.074219 8.070312 L 28.199219 8.070312 L 27.949219 7.445312 Z M 27.949219 7.320312 " fill-opacity="1" fill-rule="nonzero"/><path fill="#8e3a16" d="M 29.257812 12.675781 L 29.628906 12.738281 L 29.816406 12.800781 L 29.878906 13.113281 L 29.691406 13.363281 L 29.566406 13.363281 L 29.445312 13.796875 L 29.320312 13.859375 L 29.132812 13.734375 L 29.070312 13.300781 L 29.195312 12.738281 Z M 29.257812 12.675781 " fill-opacity="1" fill-rule="nonzero"/><path fill="#b37946" d="M 16.054688 7.074219 L 19.355469 7.074219 L 20.914062 7.136719 L 20.914062 7.382812 L 20.539062 7.382812 L 20.476562 7.257812 L 19.480469 7.257812 L 19.542969 7.382812 L 19.230469 7.382812 L 19.167969 7.195312 L 18.546875 7.257812 L 17.984375 7.320312 L 17.921875 7.195312 L 17.363281 7.195312 L 17.300781 7.320312 L 16.738281 7.257812 L 16.738281 7.195312 L 16.054688 7.136719 Z M 16.054688 7.074219 " fill-opacity="1" fill-rule="nonzero"/><path fill="#8e3a16" d="M 15.183594 22.890625 L 15.433594 22.953125 L 15.433594 23.324219 L 15.496094 22.890625 L 16.054688 22.890625 L 16.179688 23.324219 L 16.179688 23.574219 L 15.679688 23.574219 L 15.308594 23.636719 L 15.183594 23.140625 Z M 15.183594 22.890625 " fill-opacity="1" fill-rule="nonzero"/><path fill="#9a4f1e" d="M 22.34375 9.003906 L 22.40625 9.003906 L 22.46875 9.875 L 22.46875 11.121094 L 22.40625 10.996094 L 21.847656 10.933594 L 21.847656 10.808594 L 22.34375 10.808594 L 22.34375 10.1875 L 21.972656 10.1875 L 21.910156 10.125 L 21.910156 9.625 L 22.03125 9.5 L 22.34375 9.5 Z M 22.34375 9.003906 " fill-opacity="1" fill-rule="nonzero"/><path fill="#8e3b16" d="M 15.433594 21.519531 L 15.496094 21.644531 L 16.054688 21.644531 L 16.117188 21.769531 L 16.117188 22.265625 L 15.308594 22.328125 L 15.183594 21.769531 L 15.246094 21.582031 Z M 15.433594 21.519531 " fill-opacity="1" fill-rule="nonzero"/><path fill="#c79767" d="M 81.816406 14.171875 L 82.8125 14.171875 L 82.5625 14.296875 L 82.5625 15.042969 L 82.4375 15.167969 L 82.25 15.105469 L 82.25 15.480469 L 82.1875 15.480469 L 82.125 14.917969 L 81.816406 14.359375 Z M 81.816406 14.171875 " fill-opacity="1" fill-rule="nonzero"/><path fill="#8e3a16" d="M 28.074219 10.1875 L 28.445312 10.1875 L 28.695312 10.433594 L 28.820312 10.808594 L 28.945312 10.808594 L 28.945312 11.058594 L 28.820312 11.121094 L 28.074219 11.183594 L 28.011719 10.996094 L 28.757812 10.933594 L 28.757812 10.808594 L 28.074219 10.808594 Z M 28.074219 10.1875 " fill-opacity="1" fill-rule="nonzero"/><path fill="#ae713d" d="M 15.804688 26.128906 L 16.179688 26.191406 L 17.175781 26.128906 L 17.859375 26.128906 L 17.859375 26.191406 L 17.363281 26.316406 L 17.550781 26.316406 L 17.488281 26.5 L 16.863281 26.5625 L 16.054688 26.5625 Z M 15.804688 26.128906 " fill-opacity="1" fill-rule="nonzero"/><path fill="#8e3a16" d="M 20.972656 21.457031 L 21.160156 21.457031 L 21.222656 21.769531 L 21.160156 22.265625 L 20.476562 22.328125 L 20.476562 21.644531 L 20.601562 21.519531 Z M 20.972656 21.457031 " fill-opacity="1" fill-rule="nonzero"/><path fill="#8e3a16" d="M 19.230469 15.230469 L 19.851562 15.292969 L 19.976562 15.851562 L 19.851562 15.851562 L 19.792969 15.976562 L 19.605469 15.914062 L 19.542969 16.039062 L 19.230469 16.039062 L 19.105469 15.355469 L 19.230469 15.355469 Z M 19.230469 15.230469 " fill-opacity="1" fill-rule="nonzero"/><path fill="#c99a6b" d="M 17.300781 27.0625 L 18.421875 27.0625 L 19.542969 27.1875 L 19.542969 27.25 L 18.484375 27.375 L 15.679688 27.375 L 15.679688 27.3125 L 17.613281 27.25 L 17.613281 27.1875 L 17.300781 27.125 Z M 17.300781 27.0625 " fill-opacity="1" fill-rule="nonzero"/><path fill="#8f3d18" d="M 13.5625 12.550781 L 13.75 12.613281 L 13.875 12.988281 L 13.875 13.363281 L 13.75 13.300781 L 13.625 12.925781 L 13.5 12.863281 L 13.5 13.363281 L 12.941406 13.425781 L 12.941406 13.550781 L 12.753906 13.550781 L 12.816406 13.300781 L 13.191406 12.738281 Z M 13.5625 12.550781 " fill-opacity="1" fill-rule="nonzero"/><path fill="#8e3a16" d="M 20.972656 20.023438 L 21.035156 20.210938 L 21.160156 20.210938 L 21.222656 20.460938 L 21.160156 20.960938 L 20.851562 21.023438 L 20.539062 21.023438 L 20.539062 20.335938 L 20.726562 20.335938 L 20.664062 20.148438 L 20.972656 20.148438 Z M 20.972656 20.023438 " fill-opacity="1" fill-rule="nonzero"/><path fill="#9f5827" d="M 53.230469 14.171875 L 54.042969 14.171875 L 53.855469 14.730469 L 53.855469 19.589844 L 53.730469 19.589844 L 53.730469 14.234375 L 53.230469 14.234375 Z M 53.230469 14.171875 " fill-opacity="1" fill-rule="nonzero"/><path fill="#b27845" d="M 28.820312 10.558594 L 29.007812 10.621094 L 29.878906 12.242188 L 30.128906 12.675781 L 30.128906 12.988281 L 29.941406 13.175781 L 29.445312 14.171875 L 29.320312 14.234375 L 29.445312 13.859375 L 29.691406 13.300781 L 29.941406 12.800781 L 29.816406 12.429688 L 29.320312 11.554688 L 28.882812 10.808594 Z M 28.820312 10.558594 " fill-opacity="1" fill-rule="nonzero"/><path fill="#c99b6c" d="M 21.597656 6.324219 L 23.589844 6.324219 L 23.464844 6.574219 L 22.65625 6.636719 L 21.785156 6.636719 L 21.785156 6.511719 L 21.597656 6.449219 Z M 21.597656 6.324219 " fill-opacity="1" fill-rule="nonzero"/><path fill="#8e3a16" d="M 20.851562 22.828125 L 21.160156 22.828125 L 21.222656 23.199219 L 21.222656 23.574219 L 20.539062 23.574219 L 20.476562 23.449219 L 20.476562 22.953125 Z M 20.851562 22.828125 " fill-opacity="1" fill-rule="nonzero"/><path fill="#8e3a16" d="M 26.828125 22.828125 L 27.328125 22.828125 L 27.511719 22.890625 L 27.511719 23.574219 L 26.828125 23.574219 Z M 26.828125 22.828125 " fill-opacity="1" fill-rule="nonzero"/><path fill="#8e3a16" d="M 28.074219 11.429688 L 28.695312 11.429688 L 28.757812 11.492188 L 28.757812 12.117188 L 28.011719 12.117188 L 28.011719 11.929688 Z M 28.074219 11.429688 " fill-opacity="1" fill-rule="nonzero"/><path fill="#8e3a16" d="M 28.199219 21.519531 L 28.757812 21.519531 L 28.820312 21.769531 L 28.757812 22.265625 L 28.136719 22.265625 L 28.136719 21.582031 Z M 28.199219 21.519531 " fill-opacity="1" fill-rule="nonzero"/><path fill="#8e3a16" d="M 28.136719 20.335938 L 28.820312 20.335938 L 28.820312 21.023438 L 28.199219 21.082031 L 28.136719 21.023438 Z M 28.136719 20.335938 " fill-opacity="1" fill-rule="nonzero"/><path fill="#8e3b16" d="M 28.820312 22.765625 L 28.882812 22.890625 L 28.695312 23.324219 L 28.386719 23.636719 L 28.011719 23.574219 L 28.136719 22.890625 Z M 28.820312 22.765625 " fill-opacity="1" fill-rule="nonzero"/><path fill="#8e3a16" d="M 26.890625 21.582031 L 27.511719 21.582031 L 27.511719 22.203125 L 27.140625 22.328125 L 26.828125 22.328125 Z M 26.890625 21.582031 " fill-opacity="1" fill-rule="nonzero"/><path fill="#8e3a16" d="M 31.125 15.230469 L 31.3125 15.417969 L 31.375 15.914062 L 31 15.976562 L 30.441406 16.039062 L 30.441406 15.789062 Z M 31.125 15.230469 " fill-opacity="1" fill-rule="nonzero"/><path fill="#8e3a16" d="M 20.601562 7.632812 L 20.972656 7.632812 L 21.097656 7.695312 L 21.097656 8.253906 L 20.914062 8.441406 L 20.539062 8.378906 L 20.476562 8.253906 L 20.476562 7.695312 Z M 20.601562 7.632812 " fill-opacity="1" fill-rule="nonzero"/><path fill="#8e3a16" d="M 19.230469 13.984375 L 19.730469 13.984375 L 19.851562 14.109375 L 19.851562 14.609375 L 19.355469 14.730469 L 19.167969 14.609375 L 19.167969 14.109375 Z M 19.230469 13.984375 " fill-opacity="1" fill-rule="nonzero"/><path fill="#8e3a16" d="M 19.230469 16.414062 L 19.730469 16.476562 L 19.851562 16.539062 L 19.914062 17.097656 L 19.792969 17.160156 L 19.292969 17.160156 L 19.230469 17.097656 Z M 19.230469 16.414062 " fill-opacity="1" fill-rule="nonzero"/><path fill="#8e3a16" d="M 25.644531 22.828125 L 26.207031 22.890625 L 26.265625 23.078125 L 26.207031 23.574219 L 25.769531 23.574219 L 25.582031 23.511719 L 25.582031 22.890625 Z M 25.644531 22.828125 " fill-opacity="1" fill-rule="nonzero"/><path fill="#8e3a16" d="M 26.828125 17.785156 L 27.511719 17.785156 L 27.511719 18.46875 L 26.890625 18.40625 L 26.828125 18.28125 Z M 26.828125 17.785156 " fill-opacity="1" fill-rule="nonzero"/><path fill="#ad703c" d="M 26.019531 6.324219 L 27.386719 6.324219 L 27.511719 6.449219 L 26.890625 6.511719 L 27.140625 6.636719 L 26.019531 6.636719 L 25.207031 6.511719 L 25.207031 6.449219 Z M 26.019531 6.324219 " fill-opacity="1" fill-rule="nonzero"/><path fill="#c99a6b" d="M 53.292969 15.789062 L 53.542969 15.789062 L 53.605469 16.226562 L 53.605469 17.222656 L 53.355469 17.285156 L 53.292969 16.972656 Z M 53.292969 15.789062 " fill-opacity="1" fill-rule="nonzero"/><path fill="#8e3a16" d="M 19.230469 19.027344 L 19.851562 19.027344 L 19.851562 19.714844 L 19.292969 19.714844 L 19.230469 19.589844 Z M 19.230469 19.027344 " fill-opacity="1" fill-rule="nonzero"/><path fill="#8e3a16" d="M 19.230469 17.722656 L 19.851562 17.785156 L 19.914062 18.40625 L 19.730469 18.46875 L 19.292969 18.40625 L 19.167969 17.785156 Z M 19.230469 17.722656 " fill-opacity="1" fill-rule="nonzero"/><path fill="#8e3a16" d="M 26.890625 13.984375 L 27.449219 13.984375 L 27.449219 14.667969 L 26.828125 14.667969 L 26.828125 14.046875 Z M 26.890625 13.984375 " fill-opacity="1" fill-rule="nonzero"/><path fill="#8e3a16" d="M 26.828125 11.429688 L 27.386719 11.429688 L 27.449219 11.492188 L 27.449219 12.117188 L 26.890625 12.117188 L 26.828125 12.054688 Z M 26.828125 11.429688 " fill-opacity="1" fill-rule="nonzero"/><path fill="#9e5524" d="M 32.867188 16.289062 L 33.117188 16.351562 L 33.304688 16.664062 L 33.242188 17.097656 L 32.929688 17.535156 L 32.804688 17.535156 L 32.742188 17.285156 L 32.804688 16.476562 Z M 32.867188 16.289062 " fill-opacity="1" fill-rule="nonzero"/><path fill="#8e3b16" d="M 26.765625 25.257812 L 27.511719 25.257812 L 27.449219 25.566406 L 27.328125 25.816406 L 27.078125 25.941406 L 26.828125 25.941406 L 26.703125 25.628906 L 26.703125 25.320312 Z M 26.765625 25.257812 " fill-opacity="1" fill-rule="nonzero"/><path fill="#9a4f1e" d="M 22.46875 19.214844 L 22.53125 19.214844 L 22.53125 19.902344 L 22.46875 20.898438 L 22.40625 20.898438 L 22.34375 20.398438 L 21.972656 20.210938 L 21.910156 19.902344 L 22.03125 19.714844 L 22.40625 19.714844 L 22.40625 19.277344 Z M 22.46875 19.214844 " fill-opacity="1" fill-rule="nonzero"/><path fill="#8e3a16" d="M 28.136719 19.089844 L 28.757812 19.089844 L 28.820312 19.714844 L 28.570312 19.777344 L 28.136719 19.714844 Z M 28.136719 19.089844 " fill-opacity="1" fill-rule="nonzero"/><path fill="#8e3a16" d="M 21.660156 7.507812 L 22.21875 7.570312 L 22.28125 8.195312 L 22.09375 8.316406 L 21.722656 8.316406 Z M 21.660156 7.507812 " fill-opacity="1" fill-rule="nonzero"/><path fill="#8e3a16" d="M 25.644531 21.582031 L 26.207031 21.644531 L 26.207031 22.265625 L 25.644531 22.265625 L 25.582031 22.203125 L 25.582031 21.644531 Z M 25.644531 21.582031 " fill-opacity="1" fill-rule="nonzero"/><path fill="#8e3a16" d="M 18.234375 15.230469 L 18.546875 15.292969 L 18.609375 15.355469 L 18.609375 15.851562 L 18.484375 15.914062 L 18.046875 15.914062 L 17.859375 15.605469 L 17.984375 15.292969 Z M 18.234375 15.230469 " fill-opacity="1" fill-rule="nonzero"/><path fill="#8e3a16" d="M 19.230469 12.675781 L 19.667969 12.675781 L 19.851562 12.800781 L 19.851562 13.363281 L 19.417969 13.425781 L 19.230469 13.363281 Z M 19.230469 12.675781 " fill-opacity="1" fill-rule="nonzero"/><path fill="#8e3a16" d="M 17.921875 11.429688 L 18.421875 11.429688 L 18.609375 11.617188 L 18.609375 11.992188 L 18.484375 12.117188 L 18.109375 12.117188 L 17.984375 12.054688 L 17.921875 11.867188 Z M 17.921875 11.429688 " fill-opacity="1" fill-rule="nonzero"/><path fill="#8e3a16" d="M 25.582031 13.984375 L 26.019531 13.984375 L 26.207031 14.046875 L 26.207031 14.609375 L 26.144531 14.667969 L 25.582031 14.667969 Z M 25.582031 13.984375 " fill-opacity="1" fill-rule="nonzero"/><path fill="#9f5726" d="M 14.746094 25.691406 L 14.996094 25.941406 L 15.433594 26.625 L 15.558594 26.625 L 15.929688 27.0625 L 16.117188 27.25 L 15.617188 27.3125 L 15.246094 26.75 L 14.746094 25.816406 Z M 14.746094 25.691406 " fill-opacity="1" fill-rule="nonzero"/><path fill="#9a4f1e" d="M 21.222656 17.160156 L 21.285156 17.285156 L 21.472656 17.222656 L 21.597656 17.285156 L 21.660156 17.722656 L 21.535156 18.28125 L 21.285156 18.21875 L 21.097656 17.660156 L 21.160156 17.222656 Z M 21.222656 17.160156 " fill-opacity="1" fill-rule="nonzero"/><path fill="#8e3a16" d="M 17.984375 13.984375 L 18.609375 13.984375 L 18.609375 14.609375 L 18.109375 14.667969 L 17.984375 14.609375 Z M 17.984375 13.984375 " fill-opacity="1" fill-rule="nonzero"/><path fill="#8e3a16" d="M 26.890625 20.335938 L 27.511719 20.398438 L 27.511719 20.960938 L 27.449219 21.023438 L 26.953125 21.023438 L 26.890625 20.960938 Z M 26.890625 20.335938 " fill-opacity="1" fill-rule="nonzero"/><path fill="#8e3a16" d="M 25.519531 11.429688 L 26.144531 11.429688 L 26.207031 11.554688 L 26.207031 12.117188 L 25.769531 12.117188 L 25.582031 12.054688 Z M 25.519531 11.429688 " fill-opacity="1" fill-rule="nonzero"/><path fill="#8e3a16" d="M 19.417969 10.125 L 19.730469 10.125 L 19.851562 10.25 L 19.851562 10.746094 L 19.792969 10.808594 L 19.292969 10.808594 L 19.230469 10.746094 L 19.230469 10.1875 Z M 19.417969 10.125 " fill-opacity="1" fill-rule="nonzero"/><path fill="#fefefe" d="M 18.421875 27.0625 L 19.914062 27.0625 L 19.976562 27.1875 L 20.972656 27.3125 L 20.972656 27.375 L 18.484375 27.375 L 18.484375 27.3125 L 19.167969 27.25 L 18.421875 27.125 Z M 18.421875 27.0625 " fill-opacity="1" fill-rule="nonzero"/><path fill="#8e3a16" d="M 19.230469 11.429688 L 19.730469 11.429688 L 19.851562 11.492188 L 19.851562 12.054688 L 19.605469 12.117188 L 19.230469 12.054688 Z M 19.230469 11.429688 " fill-opacity="1" fill-rule="nonzero"/><path fill="#913f18" d="M 20.726562 25.007812 L 21.222656 25.007812 L 21.285156 25.378906 L 21.285156 26.128906 L 21.160156 26.128906 L 20.789062 25.378906 Z M 20.726562 25.007812 " fill-opacity="1" fill-rule="nonzero"/><path fill="#8e3a16" d="M 29.382812 19.089844 L 30.003906 19.089844 L 30.066406 19.402344 L 30.003906 19.714844 L 29.503906 19.777344 L 29.382812 19.652344 Z M 29.382812 19.089844 " fill-opacity="1" fill-rule="nonzero"/><path fill="#8e3a16" d="M 18.359375 16.476562 L 18.609375 16.476562 L 18.609375 17.160156 L 18.109375 17.160156 L 17.984375 17.035156 L 17.984375 16.539062 Z M 18.359375 16.476562 " fill-opacity="1" fill-rule="nonzero"/><path fill="#8e3a16" d="M 26.828125 12.738281 L 27.386719 12.738281 L 27.449219 12.800781 L 27.449219 13.425781 L 26.890625 13.363281 L 26.828125 13.300781 Z M 26.828125 12.738281 " fill-opacity="1" fill-rule="nonzero"/><path fill="#8e3a16" d="M 16.738281 12.675781 L 17.300781 12.738281 L 17.363281 13.238281 L 17.300781 13.363281 L 16.738281 13.363281 L 16.675781 12.738281 Z M 16.738281 12.675781 " fill-opacity="1" fill-rule="nonzero"/><path fill="#8e3a16" d="M 16.675781 11.429688 L 17.300781 11.429688 L 17.300781 12.054688 L 16.738281 12.054688 L 16.675781 11.992188 Z M 16.675781 11.429688 " fill-opacity="1" fill-rule="nonzero"/><path fill="#8e3a16" d="M 16.675781 10.125 L 17.175781 10.125 L 17.300781 10.1875 L 17.300781 10.746094 L 16.925781 10.808594 L 16.675781 10.683594 Z M 16.675781 10.125 " fill-opacity="1" fill-rule="nonzero"/><path fill="#8e3a16" d="M 25.582031 19.027344 L 26.207031 19.089844 L 26.144531 19.714844 L 25.582031 19.714844 L 25.519531 19.089844 Z M 25.582031 19.027344 " fill-opacity="1" fill-rule="nonzero"/><path fill="#8e3a16" d="M 26.828125 10.1875 L 27.386719 10.1875 L 27.449219 10.25 L 27.449219 10.808594 L 26.890625 10.808594 L 26.828125 10.746094 Z M 26.828125 10.1875 " fill-opacity="1" fill-rule="nonzero"/><path fill="#c99a6b" d="M 50.492188 16.601562 L 52.984375 16.601562 L 52.921875 16.785156 L 51.613281 16.785156 L 50.554688 16.726562 Z M 50.492188 16.601562 " fill-opacity="1" fill-rule="nonzero"/><path fill="#8e3a16" d="M 26.890625 19.027344 L 27.511719 19.089844 L 27.449219 19.714844 L 27.328125 19.777344 L 26.890625 19.714844 L 26.828125 19.089844 Z M 26.890625 19.027344 " fill-opacity="1" fill-rule="nonzero"/><path fill="#8e3a16" d="M 14.25 21.644531 L 14.808594 21.644531 L 14.871094 22.265625 L 14.25 22.265625 L 14.1875 22.140625 L 14.1875 21.707031 Z M 14.25 21.644531 " fill-opacity="1" fill-rule="nonzero"/><path fill="#8e3a16" d="M 17.984375 12.675781 L 18.484375 12.738281 L 18.546875 12.800781 L 18.546875 13.363281 L 18.046875 13.363281 L 17.921875 12.925781 Z M 17.984375 12.675781 " fill-opacity="1" fill-rule="nonzero"/><path fill="#8e3a16" d="M 30.066406 20.335938 L 30.128906 20.523438 L 29.941406 20.898438 L 29.753906 21.023438 L 29.382812 21.023438 L 29.445312 20.398438 Z M 30.066406 20.335938 " fill-opacity="1" fill-rule="nonzero"/><path fill="#8e3a16" d="M 25.894531 17.785156 L 26.207031 17.90625 L 26.144531 18.40625 L 26.082031 18.46875 L 25.582031 18.46875 L 25.582031 17.84375 Z M 25.894531 17.785156 " fill-opacity="1" fill-rule="nonzero"/><path fill="#b27845" d="M 30.441406 20.148438 L 30.5625 20.210938 L 29.753906 21.707031 L 29.132812 22.828125 L 29.007812 22.953125 L 28.945312 22.828125 L 29.566406 21.644531 L 29.941406 21.082031 L 30.128906 20.648438 Z M 30.441406 20.148438 " fill-opacity="1" fill-rule="nonzero"/><path fill="#8e3a16" d="M 25.582031 12.738281 L 26.207031 12.738281 L 26.144531 13.363281 L 25.644531 13.363281 L 25.582031 13.300781 Z M 25.582031 12.738281 " fill-opacity="1" fill-rule="nonzero"/><path fill="#9e5725" d="M 15.617188 17.96875 L 15.742188 18.21875 L 16.054688 19.152344 L 16.054688 19.464844 L 15.867188 19.402344 L 15.867188 19.277344 L 15.617188 19.027344 L 15.433594 18.46875 L 15.617188 18.34375 Z M 15.617188 17.96875 " fill-opacity="1" fill-rule="nonzero"/><path fill="#903f19" d="M 26.890625 15.230469 L 27.511719 15.230469 L 27.449219 15.667969 L 27.265625 15.789062 L 26.828125 15.789062 L 26.765625 15.292969 Z M 26.890625 15.230469 " fill-opacity="1" fill-rule="nonzero"/><path fill="#8e3a16" d="M 25.707031 20.335938 L 26.207031 20.398438 L 26.144531 20.960938 L 25.644531 21.023438 L 25.582031 20.960938 L 25.582031 20.398438 Z M 25.707031 20.335938 " fill-opacity="1" fill-rule="nonzero"/><path fill="#9a4f1e" d="M 12.566406 18.964844 L 12.816406 19.089844 L 13.066406 19.589844 L 12.320312 19.589844 L 12.132812 19.339844 L 12.195312 19.214844 L 12.566406 19.089844 Z M 12.566406 18.964844 " fill-opacity="1" fill-rule="nonzero"/><path fill="#8e3a16" d="M 17.984375 10.1875 L 18.484375 10.1875 L 18.546875 10.25 L 18.546875 10.746094 L 18.484375 10.808594 L 18.109375 10.808594 L 17.984375 10.746094 L 17.921875 10.25 Z M 17.984375 10.1875 " fill-opacity="1" fill-rule="nonzero"/><path fill="#8e3a16" d="M 19.417969 7.632812 L 19.792969 7.695312 L 19.792969 8.253906 L 19.355469 8.316406 L 19.230469 8.253906 L 19.230469 7.695312 Z M 19.417969 7.632812 " fill-opacity="1" fill-rule="nonzero"/><path fill="#8e3a16" d="M 25.644531 10.1875 L 26.144531 10.1875 L 26.144531 10.746094 L 26.082031 10.808594 L 25.644531 10.808594 L 25.582031 10.683594 L 25.582031 10.25 Z M 25.644531 10.1875 " fill-opacity="1" fill-rule="nonzero"/><path fill="#8e3a16" d="M 17.921875 8.941406 L 18.484375 8.941406 L 18.546875 9.003906 L 18.546875 9.5 L 18.109375 9.5625 L 17.984375 9.5 Z M 17.921875 8.941406 " fill-opacity="1" fill-rule="nonzero"/><path fill="#8e3a16" d="M 25.644531 7.695312 L 26.082031 7.695312 L 26.144531 7.757812 L 26.144531 8.195312 L 26.082031 8.253906 L 25.519531 8.253906 L 25.519531 7.820312 Z M 25.644531 7.695312 " fill-opacity="1" fill-rule="nonzero"/><path fill="#8e3a16" d="M 17.984375 7.695312 L 18.484375 7.695312 L 18.546875 7.757812 L 18.546875 8.253906 L 18.046875 8.316406 L 17.984375 8.253906 Z M 17.984375 7.695312 " fill-opacity="1" fill-rule="nonzero"/><path fill="#8e3a16" d="M 15.496094 10.125 L 16.054688 10.1875 L 16.117188 10.746094 L 15.617188 10.808594 L 15.496094 10.433594 Z M 15.496094 10.125 " fill-opacity="1" fill-rule="nonzero"/><path fill="#8e3a16" d="M 19.417969 8.878906 L 19.792969 9.003906 L 19.792969 9.5 L 19.230469 9.5 L 19.230469 8.941406 Z M 19.417969 8.878906 " fill-opacity="1" fill-rule="nonzero"/><path fill="#ac6f3b" d="M 25.769531 27.0625 L 26.953125 27.0625 L 26.703125 27.1875 L 27.140625 27.25 L 27.140625 27.3125 L 25.582031 27.3125 L 25.394531 27.1875 Z M 25.769531 27.0625 " fill-opacity="1" fill-rule="nonzero"/><path fill="#8e3a16" d="M 14.3125 20.585938 L 14.746094 20.648438 L 14.933594 20.898438 L 14.996094 21.207031 L 14.746094 21.207031 L 14.621094 20.960938 L 14.375 21.023438 L 14.0625 21.082031 L 14 20.835938 L 14.1875 20.835938 L 14.1875 20.648438 Z M 14.3125 20.585938 " fill-opacity="1" fill-rule="nonzero"/><path fill="#8e3a16" d="M 19.292969 20.398438 L 19.851562 20.398438 L 19.851562 21.023438 L 19.355469 20.960938 L 19.292969 20.898438 Z M 19.292969 20.398438 " fill-opacity="1" fill-rule="nonzero"/><path fill="#8e3a16" d="M 16.738281 8.941406 L 17.238281 8.941406 L 17.300781 9.003906 L 17.300781 9.5 L 16.925781 9.5625 L 16.738281 9.5 Z M 16.738281 8.941406 " fill-opacity="1" fill-rule="nonzero"/><path fill="#8e3a16" d="M 26.828125 8.941406 L 27.328125 8.941406 L 27.386719 9.003906 L 27.386719 9.5 L 26.890625 9.5 L 26.828125 9.4375 Z M 26.828125 8.941406 " fill-opacity="1" fill-rule="nonzero"/><path fill="#8e3a16" d="M 15.496094 8.941406 L 15.992188 8.941406 L 16.054688 9.128906 L 15.992188 9.5 L 15.558594 9.5 L 15.433594 9.375 L 15.433594 9.003906 Z M 15.496094 8.941406 " fill-opacity="1" fill-rule="nonzero"/><path fill="#af7440" d="M 18.734375 26.128906 L 18.855469 26.191406 L 18.855469 26.316406 L 19.792969 26.316406 L 20.101562 26.4375 L 19.851562 26.5625 L 19.042969 26.5625 L 18.546875 26.5 Z M 18.734375 26.128906 " fill-opacity="1" fill-rule="nonzero"/><path fill="#8e3a16" d="M 14.746094 22.828125 L 14.871094 22.890625 L 14.871094 23.261719 L 14.933594 23.574219 L 14.683594 23.574219 L 14.375 23.199219 L 14.3125 22.890625 Z M 14.746094 22.828125 " fill-opacity="1" fill-rule="nonzero"/><path fill="#8e3a16" d="M 16.800781 13.984375 L 17.363281 13.984375 L 17.363281 14.484375 L 17.300781 14.609375 L 17.050781 14.667969 L 16.800781 14.234375 Z M 16.800781 13.984375 " fill-opacity="1" fill-rule="nonzero"/><path fill="#fefefe" d="M 23.214844 27.1875 L 24.027344 27.1875 L 24.523438 27.3125 L 24.523438 27.375 L 22.21875 27.375 L 22.21875 27.3125 Z M 23.214844 27.1875 " fill-opacity="1" fill-rule="nonzero"/><path fill="#8e3a16" d="M 25.582031 15.292969 L 26.207031 15.292969 L 26.207031 15.726562 L 26.144531 15.789062 L 25.644531 15.789062 L 25.582031 15.726562 Z M 25.582031 15.292969 " fill-opacity="1" fill-rule="nonzero"/><path fill="#b07542" d="M 31.375 18.34375 L 31.5 18.59375 L 30.9375 19.527344 L 30.75 19.277344 L 30.503906 18.84375 L 30.253906 18.53125 L 30.316406 18.40625 L 30.875 19.089844 L 31 19.152344 L 31.0625 18.84375 L 31.1875 18.84375 L 31.25 18.53125 Z M 31.375 18.34375 " fill-opacity="1" fill-rule="nonzero"/><path fill="#8e3a16" d="M 16.738281 7.695312 L 17.238281 7.695312 L 17.300781 7.945312 L 17.238281 8.253906 L 17.050781 8.316406 L 16.738281 8.195312 Z M 16.738281 7.695312 " fill-opacity="1" fill-rule="nonzero"/><path fill="#8e3a16" d="M 15.992188 25.378906 L 16.179688 25.378906 L 16.242188 26.128906 L 15.929688 26.066406 L 15.679688 25.628906 L 15.679688 25.441406 Z M 15.992188 25.378906 " fill-opacity="1" fill-rule="nonzero"/><path fill="#8e3a16" d="M 25.582031 9.003906 L 26.144531 9.003906 L 26.144531 9.5 L 25.644531 9.5625 L 25.582031 9.5 Z M 25.582031 9.003906 " fill-opacity="1" fill-rule="nonzero"/><path fill="#ad703c" d="M 11.632812 18.65625 L 11.820312 18.71875 L 12.320312 19.527344 L 14.746094 19.527344 L 14.746094 19.589844 L 14.125 19.652344 L 12.195312 19.652344 L 11.632812 18.71875 Z M 11.632812 18.65625 " fill-opacity="1" fill-rule="nonzero"/><path fill="#8e3a16" d="M 18.484375 17.722656 L 18.609375 17.722656 L 18.609375 18.40625 L 18.234375 18.40625 L 18.109375 17.84375 Z M 18.484375 17.722656 " fill-opacity="1" fill-rule="nonzero"/><path fill="#b67d4b" d="M 12.941406 20.898438 L 13.128906 20.960938 L 13.625 21.957031 L 13.9375 22.515625 L 14.25 23.015625 L 14.125 23.140625 L 13.5 22.019531 L 12.941406 21.023438 Z M 12.941406 20.898438 " fill-opacity="1" fill-rule="nonzero"/><path fill="#9a4f1e" d="M 85.800781 14.234375 L 87.730469 14.234375 L 87.730469 14.296875 L 86.984375 14.359375 L 86.984375 14.421875 L 86.546875 14.546875 L 86.171875 14.484375 L 86.050781 14.359375 Z M 85.800781 14.234375 " fill-opacity="1" fill-rule="nonzero"/><path fill="#9a4f1e" d="M 25.519531 25.257812 L 26.390625 25.257812 L 26.453125 25.441406 L 26.453125 25.878906 L 26.640625 25.878906 L 26.703125 25.691406 L 26.703125 25.941406 L 26.390625 25.941406 L 26.144531 25.753906 L 26.265625 25.378906 L 26.144531 25.441406 L 25.644531 25.441406 L 25.519531 25.378906 Z M 25.519531 25.257812 " fill-opacity="1" fill-rule="nonzero"/><path fill="#8e3b16" d="M 19.792969 21.582031 L 19.851562 21.582031 L 19.914062 22.328125 L 19.605469 22.203125 L 19.417969 22.019531 L 19.417969 21.644531 Z M 19.792969 21.582031 " fill-opacity="1" fill-rule="nonzero"/><path fill="#8e3b16" d="M 15.617188 20.585938 L 15.929688 20.648438 L 16.117188 20.773438 L 16.117188 21.023438 L 15.992188 21.023438 L 15.992188 20.898438 L 15.558594 20.960938 L 15.496094 21.144531 L 15.246094 21.023438 L 15.308594 20.835938 L 15.496094 20.835938 L 15.496094 20.648438 Z M 15.617188 20.585938 " fill-opacity="1" fill-rule="nonzero"/><path fill="#8e3a16" d="M 16.675781 25.070312 L 17.550781 25.070312 L 17.550781 25.257812 L 16.800781 25.320312 L 16.367188 25.378906 L 16.304688 25.132812 Z M 16.675781 25.070312 " fill-opacity="1" fill-rule="nonzero"/><path fill="#ac6f3c" d="M 82.8125 14.171875 L 83.246094 14.171875 L 82.875 14.609375 L 82.75 14.917969 L 82.6875 14.792969 L 82.5625 14.792969 L 82.5625 14.296875 L 82.375 14.234375 Z M 82.8125 14.171875 " fill-opacity="1" fill-rule="nonzero"/><path fill="#ad703c" d="M 15.867188 20.523438 L 16.554688 20.585938 L 16.925781 21.519531 L 16.863281 21.707031 L 16.492188 20.960938 L 16.367188 20.898438 L 16.367188 20.773438 L 16.179688 20.773438 L 16.179688 20.648438 L 15.804688 20.648438 Z M 15.867188 20.523438 " fill-opacity="1" fill-rule="nonzero"/><path fill="#994e1d" d="M 22.34375 22.203125 L 22.40625 22.203125 L 22.40625 22.640625 L 22.28125 22.890625 L 21.847656 22.828125 L 22.03125 22.578125 L 21.972656 22.265625 Z M 22.34375 22.203125 " fill-opacity="1" fill-rule="nonzero"/><path fill="#8f3c16" d="M 25.519531 25.378906 L 26.265625 25.378906 L 26.265625 25.691406 L 26.144531 25.816406 L 25.707031 25.753906 L 25.582031 25.691406 Z M 25.519531 25.378906 " fill-opacity="1" fill-rule="nonzero"/><path fill="#b8814f" d="M 14.5 9.875 L 14.621094 9.9375 L 14.4375 10.371094 L 14.4375 10.621094 L 14.25 10.683594 L 13.8125 11.554688 L 13.6875 11.308594 L 14.125 10.558594 Z M 14.5 9.875 " fill-opacity="1" fill-rule="nonzero"/><path fill="#9d5423" d="M 15.121094 18.84375 L 15.246094 18.84375 L 15.433594 19.214844 L 15.433594 19.402344 L 15.558594 19.464844 L 15.371094 19.527344 L 14.746094 19.527344 L 14.808594 19.277344 L 14.996094 19.152344 L 15.183594 19.402344 Z M 15.121094 18.84375 " fill-opacity="1" fill-rule="nonzero"/><path fill="#9d5524" d="M 15.617188 6.324219 L 16.054688 6.386719 L 16.179688 6.636719 L 15.679688 6.636719 L 15.371094 7.011719 L 15.246094 7.011719 L 15.371094 6.699219 Z M 15.617188 6.324219 " fill-opacity="1" fill-rule="nonzero"/><path fill="#903d17" d="M 28.199219 23.761719 L 28.261719 23.886719 L 28.074219 24.320312 L 27.949219 24.632812 L 27.761719 24.632812 L 27.824219 24.011719 Z M 28.199219 23.761719 " fill-opacity="1" fill-rule="nonzero"/><g clip-path="url(#0b8ce74471)"><path fill="#a05928" d="M 9.953125 16.351562 L 10.203125 16.351562 L 10.140625 16.601562 L 10.140625 17.097656 L 9.890625 17.160156 L 9.765625 16.726562 Z M 9.953125 16.351562 " fill-opacity="1" fill-rule="nonzero"/></g><path fill="#a86635" d="M 109.027344 17.660156 L 109.089844 17.660156 L 109.152344 19.652344 L 108.964844 19.527344 L 108.964844 18.71875 Z M 109.027344 17.660156 " fill-opacity="1" fill-rule="nonzero"/><path fill="#9a4f1e" d="M 25.769531 16.785156 L 26.890625 16.785156 L 26.765625 17.035156 L 26.390625 17.160156 L 26.144531 16.910156 L 25.769531 16.847656 Z M 25.769531 16.785156 " fill-opacity="1" fill-rule="nonzero"/><path fill="#c69667" d="M 13.5625 12.054688 L 13.6875 12.179688 L 13.875 12.738281 L 14 12.675781 L 14 13.175781 L 14.1875 13.238281 L 14.1875 13.671875 L 14.0625 13.734375 L 13.875 13.113281 L 13.5625 12.242188 Z M 13.5625 12.054688 " fill-opacity="1" fill-rule="nonzero"/><path fill="#ad703c" d="M 30.003906 12.738281 L 30.128906 12.738281 L 30.128906 12.988281 L 29.941406 13.175781 L 29.445312 14.171875 L 29.320312 14.234375 L 29.445312 13.859375 L 29.691406 13.300781 Z M 30.003906 12.738281 " fill-opacity="1" fill-rule="nonzero"/><path fill="#b37946" d="M 31.125 14.667969 L 31.25 14.667969 L 31.996094 15.914062 L 31.933594 16.039062 L 31.5 15.417969 L 31.375 15.105469 L 31.125 15.167969 Z M 31.125 14.667969 " fill-opacity="1" fill-rule="nonzero"/><path fill="#ac6e3b" d="M 16.054688 7.074219 L 17.859375 7.074219 L 17.859375 7.136719 L 17.363281 7.195312 L 17.300781 7.320312 L 16.738281 7.257812 L 16.738281 7.195312 L 16.054688 7.136719 Z M 16.054688 7.074219 " fill-opacity="1" fill-rule="nonzero"/><path fill="#fefefe" d="M 16.617188 19.652344 L 16.738281 19.839844 L 16.925781 20.523438 L 16.675781 20.398438 L 16.675781 20.273438 L 16.554688 20.273438 L 16.492188 19.714844 Z M 16.617188 19.652344 " fill-opacity="1" fill-rule="nonzero"/><path fill="#be8958" d="M 17.859375 7.074219 L 19.355469 7.074219 L 19.355469 7.136719 L 17.984375 7.320312 Z M 17.859375 7.074219 " fill-opacity="1" fill-rule="nonzero"/><path fill="#9a4f1e" d="M 26.765625 25.257812 L 27.511719 25.257812 L 27.449219 25.566406 L 27.328125 25.628906 L 27.328125 25.503906 L 26.765625 25.441406 L 26.828125 25.691406 L 26.703125 25.628906 L 26.703125 25.320312 Z M 26.765625 25.257812 " fill-opacity="1" fill-rule="nonzero"/><path fill="#9f5826" d="M 28.324219 17.160156 L 28.945312 17.347656 L 29.691406 17.722656 L 29.878906 17.96875 L 29.628906 17.84375 L 28.882812 17.535156 L 28.324219 17.285156 Z M 28.324219 17.160156 " fill-opacity="1" fill-rule="nonzero"/><path fill="#b07441" d="M 27.886719 24.757812 L 27.949219 24.945312 L 27.386719 25.941406 L 27.265625 25.816406 L 27.699219 24.945312 Z M 27.886719 24.757812 " fill-opacity="1" fill-rule="nonzero"/><path fill="#b17643" d="M 29.628906 21.644531 L 29.691406 21.769531 L 29.070312 22.953125 L 28.945312 22.828125 L 29.503906 21.769531 Z M 29.628906 21.644531 " fill-opacity="1" fill-rule="nonzero"/><path fill="#a15b2a" d="M 77.640625 18.78125 L 77.703125 18.78125 L 77.703125 19.527344 L 77.640625 19.964844 L 77.332031 19.964844 L 77.457031 19.652344 Z M 77.640625 18.78125 " fill-opacity="1" fill-rule="nonzero"/><path fill="#b57c49" d="M 13.4375 11.804688 L 13.5625 11.804688 L 13.5625 12.242188 L 13.5 12.117188 L 13.316406 12.304688 L 13.003906 12.863281 L 12.816406 12.988281 L 12.941406 12.675781 Z M 13.4375 11.804688 " fill-opacity="1" fill-rule="nonzero"/><path fill="#ad703c" d="M 21.222656 27.0625 L 21.722656 27.0625 L 22.15625 27.1875 L 22.15625 27.25 L 21.035156 27.25 Z M 21.222656 27.0625 " fill-opacity="1" fill-rule="nonzero"/><path fill="#9a4f1e" d="M 13.6875 19.089844 L 13.8125 19.152344 L 13.9375 19.464844 L 14.0625 19.589844 L 13.4375 19.589844 L 13.625 19.152344 Z M 13.6875 19.089844 " fill-opacity="1" fill-rule="nonzero"/><path fill="#c79768" d="M 59.894531 16.847656 L 59.957031 16.847656 L 59.957031 17.785156 L 59.894531 18.15625 L 59.707031 18.09375 L 59.769531 17.472656 L 59.832031 17.472656 Z M 59.894531 16.847656 " fill-opacity="1" fill-rule="nonzero"/><path fill="#fefefe" d="M 22.71875 6.386719 L 23.589844 6.386719 L 23.464844 6.574219 L 22.71875 6.574219 Z M 22.71875 6.386719 " fill-opacity="1" fill-rule="nonzero"/><path fill="#94451e" d="M 26.890625 7.695312 L 27.078125 7.695312 L 27.140625 8.253906 L 26.828125 8.253906 L 26.828125 7.757812 Z M 26.890625 7.695312 " fill-opacity="1" fill-rule="nonzero"/><path fill="#a56130" d="M 80.507812 17.90625 L 80.816406 18.21875 L 80.878906 18.40625 L 81.003906 18.40625 L 81.378906 18.90625 L 81.128906 18.78125 L 80.507812 18.15625 L 80.445312 17.96875 Z M 80.507812 17.90625 " fill-opacity="1" fill-rule="nonzero"/><path fill="#a4612e" d="M 81.816406 14.171875 L 82.1875 14.234375 L 82.1875 14.855469 L 82 14.667969 L 81.816406 14.359375 Z M 81.816406 14.171875 " fill-opacity="1" fill-rule="nonzero"/><path fill="#8e3a16" d="M 15.804688 25.007812 L 16.179688 25.070312 L 16.179688 25.257812 L 15.617188 25.257812 L 15.496094 25.070312 Z M 15.804688 25.007812 " fill-opacity="1" fill-rule="nonzero"/><path fill="#8f3b16" d="M 12.941406 20.648438 L 13.5 20.648438 L 13.5 20.960938 L 13.191406 20.898438 L 12.941406 20.773438 Z M 12.941406 20.648438 " fill-opacity="1" fill-rule="nonzero"/><path fill="#b47b48" d="M 11.632812 18.65625 L 11.820312 18.71875 L 12.378906 19.589844 L 12.195312 19.652344 L 11.632812 18.71875 Z M 11.632812 18.65625 " fill-opacity="1" fill-rule="nonzero"/><path fill="#ad703c" d="M 29.566406 15.789062 L 29.753906 15.851562 L 29.628906 15.914062 L 30.378906 16.226562 L 30.191406 16.289062 L 29.257812 15.976562 L 29.382812 15.851562 Z M 29.566406 15.789062 " fill-opacity="1" fill-rule="nonzero"/><path fill="#9a4f1e" d="M 21.972656 23.949219 L 22.28125 23.949219 L 22.28125 24.757812 L 22.21875 24.757812 L 22.15625 24.199219 L 21.785156 24.136719 Z M 21.972656 23.949219 " fill-opacity="1" fill-rule="nonzero"/><path fill="#a35f2e" d="M 47.191406 18.53125 L 47.316406 18.53125 L 47.253906 18.964844 L 47.128906 18.964844 L 46.941406 19.214844 L 46.816406 19.152344 Z M 47.191406 18.53125 " fill-opacity="1" fill-rule="nonzero"/><path fill="#c99a6b" d="M 38.660156 17.597656 L 39.40625 17.660156 L 39.46875 17.785156 L 38.597656 17.785156 Z M 38.660156 17.597656 " fill-opacity="1" fill-rule="nonzero"/><path fill="#b57c4a" d="M 14.5 9.875 L 14.621094 9.9375 L 14.4375 10.371094 L 14.4375 10.621094 L 14.0625 10.746094 L 14.1875 10.496094 Z M 14.5 9.875 " fill-opacity="1" fill-rule="nonzero"/><path fill="#ad713d" d="M 15.058594 8.878906 L 15.183594 9.003906 L 15.246094 9.6875 L 15.121094 9.4375 L 15.121094 9.3125 L 14.871094 9.375 L 14.996094 9.003906 Z M 15.058594 8.878906 " fill-opacity="1" fill-rule="nonzero"/><path fill="#9a4f1e" d="M 22.28125 23.386719 L 22.34375 23.574219 L 22.34375 23.949219 L 22.21875 23.761719 L 21.910156 23.699219 L 21.847656 23.574219 Z M 22.28125 23.386719 " fill-opacity="1" fill-rule="nonzero"/><path fill="#b47a48" d="M 15.992188 7.195312 L 16.054688 7.195312 L 16.054688 7.757812 L 15.992188 7.945312 L 15.867188 7.882812 L 15.867188 7.632812 L 15.742188 7.695312 L 15.867188 7.382812 Z M 15.992188 7.195312 " fill-opacity="1" fill-rule="nonzero"/><path fill="#8e3a16" d="M 26.578125 22.890625 L 26.640625 22.890625 L 26.703125 23.574219 L 26.515625 23.636719 L 26.453125 23.261719 Z M 26.578125 22.890625 " fill-opacity="1" fill-rule="nonzero"/><path fill="#9a4f1e" d="M 20.664062 23.949219 L 21.097656 23.949219 L 21.097656 24.136719 L 20.539062 24.136719 L 20.539062 24.011719 Z M 20.664062 23.949219 " fill-opacity="1" fill-rule="nonzero"/><path fill="#9c5422" d="M 13.9375 18.964844 L 14.1875 19.214844 L 14.25 19.464844 L 14.375 19.527344 L 14.0625 19.527344 L 13.9375 19.214844 Z M 13.9375 18.964844 " fill-opacity="1" fill-rule="nonzero"/></svg>